<svg xmlns="http://www.w3.org/2000/svg" xmlns:xlink="http://www.w3.org/1999/xlink" width="203" height="203" viewBox="0 0 203 203">
  <defs>
    <radialGradient id="radial-gradient" cx="0.53" cy="0.5" r="0.902" gradientUnits="objectBoundingBox">
      <stop offset="0" stop-color="#fff"/>
      <stop offset="1" stop-color="#f5f5f5"/>
    </radialGradient>
  </defs>
  <g id="Analytics" transform="translate(-858.855 -7023)">
    <g id="Ellipse_193" data-name="Ellipse 193" transform="translate(858.855 7023)" stroke="#ed4041" stroke-width="5" fill="url(#radial-gradient)">
      <circle cx="101.5" cy="101.5" r="101.5" stroke="none"/>
      <circle cx="101.5" cy="101.5" r="99" fill="none"/>
    </g>
    <g id="Analitics" transform="translate(1265.912 7167.021)">
      <path id="Path_10397" data-name="Path 10397" d="M-197.765-3.989q0-16.018,0-32.035c0-1.989.484-2.6,2.072-2.6q6.636,0,13.272,0c1.381,0,1.942.69,1.942,2.4q0,32.219,0,64.439c0,1.664-.56,2.36-1.895,2.361q-6.711.006-13.421,0c-1.439,0-1.971-.661-1.971-2.441Q-197.766,12.074-197.765-3.989Z" transform="translate(-74.435 -26.611)"/>
      <path id="Path_10398" data-name="Path 10398" d="M-305.243,8.288q0-13.742,0-27.484c0-2.1.413-2.61,2.1-2.611q6.6,0,13.191,0c1.438,0,1.916.6,1.916,2.376q0,27.669,0,55.339c0,1.824-.489,2.436-1.952,2.437q-6.669,0-13.339,0c-1.417,0-1.916-.619-1.917-2.388Q-305.246,22.123-305.243,8.288Z" transform="translate(-24.789 -34.379)"/>
      <path id="Path_10399" data-name="Path 10399" d="M-251.466,16.606q0-12.266,0-24.532c0-1.819.5-2.45,1.952-2.45q6.672,0,13.344,0c1.4,0,1.912.644,1.913,2.408q0,24.578,0,49.155c0,1.834-.485,2.435-1.954,2.436q-6.672,0-13.344,0c-1.411,0-1.91-.628-1.91-2.4Q-251.467,28.917-251.466,16.606Z" transform="translate(-49.63 -39.659)"/>
      <path id="Path_10400" data-name="Path 10400" d="M-285.78-77.554c4.54-2.433,9.014-4.844,13.506-7.223.511-.271.476-.576.414-1.044a8.457,8.457,0,0,1,8.826-9.92,8.462,8.462,0,0,1,7.951,7.538,8.457,8.457,0,0,1-6.76,9.241,8.312,8.312,0,0,1-7.644-2.3.831.831,0,0,0-1.171-.2q-6.416,3.489-12.866,6.917c-.412.22-.648.407-.562.979a8.458,8.458,0,0,1-7.06,9.766,8.466,8.466,0,0,1-9.738-7.64c-.078-.677-.284-.926-.94-1.077-3.691-.853-7.37-1.756-11.048-2.663a.837.837,0,0,0-1.111.452,8.425,8.425,0,0,1-13.156,2.08.834.834,0,0,0-1.19-.085q-6.573,3.961-13.171,7.88a.975.975,0,0,0-.548,1.253,8.451,8.451,0,0,1-6.563,10.174,8.493,8.493,0,0,1-10.082-6.966,8.481,8.481,0,0,1,7.312-9.758,8.106,8.106,0,0,1,6.609,2,.987.987,0,0,0,1.415.1q6.524-3.956,13.094-7.835a1.041,1.041,0,0,0,.595-1.317,8.447,8.447,0,0,1,6.8-10.015,8.374,8.374,0,0,1,9.822,7.047,1.529,1.529,0,0,0,1.432,1.5c3.6.814,7.193,1.7,10.781,2.588.469.116.747.129,1.057-.357,3.231-5.056,9.446-5.69,13.658-1.421C-286.031-77.773-285.937-77.7-285.78-77.554Z" transform="translate(-0.052 -0.225)"/>
      <path id="Path_10401" data-name="Path 10401" d="M-341.511,31.048q0,9.624,0,19.248c0,1.723-.54,2.395-1.932,2.4q-6.744,0-13.488,0c-1.286,0-1.866-.711-1.866-2.3q0-19.387,0-38.773c0-1.639.585-2.362,1.9-2.363q6.744-.006,13.488,0c1.323,0,1.895.715,1.9,2.362Q-341.508,21.332-341.511,31.048Z" transform="translate(-0.052 -48.725)"/>
      <circle id="Ellipse_226" data-name="Ellipse 226" cx="8.548" cy="8.548" r="8.548" transform="translate(-358.911 -70.592)" fill="#e71823"/>
      <circle id="Ellipse_227" data-name="Ellipse 227" cx="8.548" cy="8.548" r="8.548" transform="translate(-329.976 -87.688)" fill="#e71823"/>
      <circle id="Ellipse_228" data-name="Ellipse 228" cx="8.548" cy="8.548" r="8.548" transform="translate(-301.039 -81.176)" fill="#e71823"/>
      <circle id="Ellipse_229" data-name="Ellipse 229" cx="8.548" cy="8.548" r="8.548" transform="translate(-272.104 -96.236)" fill="#e71823"/>
    </g>
  </g>
</svg>
