<svg xmlns="http://www.w3.org/2000/svg" xmlns:xlink="http://www.w3.org/1999/xlink" width="552.275" height="423.854" viewBox="0 0 552.275 423.854">
  <defs>
    <linearGradient id="linear-gradient" x1="0.5" y1="1" x2="0.5" gradientUnits="objectBoundingBox">
      <stop offset="0" stop-color="gray" stop-opacity="0.251"/>
      <stop offset="0.54" stop-color="gray" stop-opacity="0.122"/>
      <stop offset="1" stop-color="gray" stop-opacity="0.102"/>
    </linearGradient>
    <linearGradient id="linear-gradient-2" x1="0.503" y1="1" x2="0.503" y2="-0.002" xlink:href="#linear-gradient"/>
    <linearGradient id="linear-gradient-3" x1="0.927" y1="1" x2="0.927" y2="0" xlink:href="#linear-gradient"/>
  </defs>
  <g id="askleo-virtual-office" transform="translate(0.005 -0.008)">
    <path id="Path_10446" data-name="Path 10446" d="M106.793,264.867c18.751,23.843,11.466,58.668-.447,86.566-3.992,9.341-8.5,19.219-6.838,29.234,2.057,12.245,12.986,21.2,24.463,25.947a72.812,72.812,0,0,0,65.18-5.37c16.611-10.336,28.508-27.141,45.4-37,28.277-16.505,64.264-10.272,94.966,1.1,21.723,8.042,45.471,18.5,67.052,10.1,15.185-5.917,25.684-20.313,31.406-35.577,2.761-7.364,4.765-15.343,10.041-21.187a37.7,37.7,0,0,1,11.419-8.016c38.276-18.977,86.613-8.815,123.79-29.86,25.105-14.2,41.179-41.027,48.3-68.988s6.312-57.279,4.481-86.072c-1.283-20.466-3.587-42.31-16.663-58.105-13.833-16.705-37.571-22.922-59.026-19.745s-40.906,14.5-58.016,27.824c-21.381,16.663-41.216,37.408-67.468,44.182-17.883,4.6-36.687,2.1-55.128,1.21-30.828-1.457-61.666,1.783-92.326,5.323-29.35,3.393-58.91,7.127-86.871,16.674-19.782,6.733-35.635,19-54.318,27.546-12.176,5.586-25.458,7.127-36.992,14.244C85,193.654,71.973,208.9,75.613,226.733,79.074,243.706,96.842,252.211,106.793,264.867Z" transform="translate(-75 -47.08)" fill="#ee2d2b" opacity="0.1"/>
    <path id="Path_10447" data-name="Path 10447" d="M218.048,525.119s-1.736-51.42-29.555-80.475a77.943,77.943,0,0,1-21.376-44.435,131.1,131.1,0,0,1-.652-23.969" transform="translate(-118.23 -203.104)" fill="none" stroke="#535461" stroke-miterlimit="10" stroke-width="2"/>
    <path id="Path_10448" data-name="Path 10448" d="M133.076,328.275c1.9,5.744,17.82,18.935,17.82,18.935s4.876-20.1,2.972-25.836a10.953,10.953,0,0,0-20.792,6.9Z" transform="translate(-102.266 -173.537)" fill="#ee2d2b"/>
    <path id="Path_10449" data-name="Path 10449" d="M117.61,395.236c4.734,3.787,25.247,6.217,25.247,6.217s-6.838-19.519-11.572-23.3a10.951,10.951,0,0,0-13.676,17.084Z" transform="translate(-93.418 -203.002)" fill="#ee2d2b"/>
    <path id="Path_10450" data-name="Path 10450" d="M148.221,495.782c5.986.884,24.937-7.364,24.937-7.364s-15.748-13.4-21.734-14.286a10.953,10.953,0,1,0-3.2,21.67Z" transform="translate(-105.277 -249.45)" fill="#ee2d2b"/>
    <path id="Path_10451" data-name="Path 10451" d="M194.358,567.887c5.749,1.883,25.826-3.061,25.826-3.061s-13.26-15.869-19.009-17.752a10.954,10.954,0,0,0-6.838,20.813Z" transform="translate(-127.997 -283.822)" fill="#ee2d2b"/>
    <path id="Path_10452" data-name="Path 10452" d="M192.182,398.293c-2.793,5.365-20.6,15.874-20.6,15.874s-1.62-20.613,1.173-25.983a10.951,10.951,0,1,1,19.43,10.109Z" transform="translate(-120.561 -205.97)" fill="#ee2d2b"/>
    <path id="Path_10453" data-name="Path 10453" d="M240.186,480.44c-4.271,4.287-24.406,8.979-24.406,8.979s4.623-20.156,8.889-24.442a10.951,10.951,0,0,1,15.516,15.459Z" transform="translate(-141.735 -243.639)" fill="#ee2d2b"/>
    <path id="Path_10454" data-name="Path 10454" d="M280.168,570.451c-3.482,4.944-22.538,12.976-22.538,12.976s1.147-20.645,4.634-25.594a10.951,10.951,0,1,1,17.883,12.623Z" transform="translate(-161.572 -286.843)" fill="#ee2d2b"/>
    <path id="Path_10455" data-name="Path 10455" d="M717,592.052s-8.353-2.83-12.371,4.529A13.423,13.423,0,0,0,704.8,609.5c2.63,4.771,8.079,10.967,18.409,10.414,8.742-.468,11.624-7.138,12.424-13.344a13.707,13.707,0,0,0-18.2-14.675Z" transform="translate(-372.712 -304.952)" fill="#ee2d2b"/>
    <path id="Path_10456" data-name="Path 10456" d="M706.581,609.959a13.423,13.423,0,0,1-.179-12.923c4.018-7.364,12.371-4.529,12.371-4.529l.426-.153a13.586,13.586,0,0,1,9.815.221,13.591,13.591,0,0,0-11.572-1.1l-.426.153s-8.353-2.83-12.371,4.529a13.423,13.423,0,0,0,.179,12.923,19.97,19.97,0,0,0,9.468,8.942A20.7,20.7,0,0,1,706.581,609.959Z" transform="translate(-372.722 -304.744)" fill="#fff" opacity="0.1"/>
    <path id="Path_10457" data-name="Path 10457" d="M721.36,599.64s3.1,2.435,10.614,0" transform="translate(-381.389 -309)" opacity="0.2"/>
    <path id="Path_10458" data-name="Path 10458" d="M720.1,566s5.307,14.375,4.865,18.136l4.208-.442s-7.08-12.624-5.307-17.694Z" transform="translate(-380.792 -293.054)" fill="#ee2d2b"/>
    <path id="Path_10459" data-name="Path 10459" d="M720.1,566s5.307,14.375,4.865,18.136l4.208-.442s-7.08-12.624-5.307-17.694Z" transform="translate(-380.792 -293.054)" opacity="0.2"/>
    <path id="Path_10460" data-name="Path 10460" d="M746.5,566.353s-8.353-4.271-12.1-.742-4.313,12.55-4.313,12.55S743.718,580.033,746.5,566.353Z" transform="translate(-385.527 -292.207)" fill="#ee2d2b"/>
    <path id="Path_10461" data-name="Path 10461" d="M746.5,566.353s-8.353-4.271-12.1-.742-4.313,12.55-4.313,12.55S743.718,580.033,746.5,566.353Z" transform="translate(-385.527 -292.207)" fill="#fff" opacity="0.1"/>
    <path id="Path_10462" data-name="Path 10462" d="M730.1,580.088s2.193-10.472,16.405-11.808" transform="translate(-385.532 -294.134)" fill="none" stroke="#ee2d2b" stroke-miterlimit="10" stroke-width="1"/>
    <path id="Path_10463" data-name="Path 10463" d="M254.652,396.889s1.7-27.8-11.8-44.887a42.2,42.2,0,0,1-9.242-25.047A71.008,71.008,0,0,1,234.5,314" transform="translate(-150.178 -173.601)" fill="none" stroke="#535461" stroke-miterlimit="10" stroke-width="2"/>
    <path id="Path_10464" data-name="Path 10464" d="M219.116,286.892c.731,3.193,8.631,11.125,8.631,11.125s3.682-10.583,2.93-13.77a5.933,5.933,0,0,0-11.572,2.63Z" transform="translate(-143.241 -157.308)" fill="#ee2d2b"/>
    <path id="Path_10465" data-name="Path 10465" d="M207.18,322.049c2.351,2.283,13.292,4.65,13.292,4.65s-2.677-10.872-5.028-13.15a5.929,5.929,0,0,0-8.263,8.505Z" transform="translate(-136.806 -172.593)" fill="#ee2d2b"/>
    <path id="Path_10466" data-name="Path 10466" d="M218.685,377.957c3.156.784,13.818-2.7,13.818-2.7s-7.8-8.032-10.977-8.815a5.929,5.929,0,0,0-2.84,11.514Z" transform="translate(-140.974 -198.378)" fill="#ee2d2b"/>
    <path id="Path_10467" data-name="Path 10467" d="M239.859,419.209c3,1.31,14.075-.326,14.075-.326s-6.312-9.236-9.331-10.52a5.927,5.927,0,1,0-4.734,10.868Z" transform="translate(-151.465 -218.096)" fill="#ee2d2b"/>
    <path id="Path_10468" data-name="Path 10468" d="M246.669,327.7c-1.778,2.751-11.919,7.5-11.919,7.5s.184-11.193,1.967-13.944a5.929,5.929,0,1,1,9.952,6.449Z" transform="translate(-150.727 -175.756)" fill="#ee2d2b"/>
    <path id="Path_10469" data-name="Path 10469" d="M268.288,374.681c-2.519,2.1-13.618,3.587-13.618,3.587s3.524-10.625,6.049-12.718a5.93,5.93,0,1,1,7.569,9.131Z" transform="translate(-160.169 -197.39)" fill="#ee2d2b"/>
    <path id="Path_10470" data-name="Path 10470" d="M285.083,425.25c-2.13,2.488-12.813,5.838-12.813,5.838s1.678-11.046,3.813-13.555a5.931,5.931,0,1,1,9,7.721Z" transform="translate(-168.512 -221.697)" fill="#ee2d2b"/>
    <path id="Path_10471" data-name="Path 10471" d="M219.116,286.892c.731,3.193,8.631,11.125,8.631,11.125s3.682-10.583,2.93-13.77a5.933,5.933,0,0,0-11.572,2.63Z" transform="translate(-143.241 -157.308)" fill="#fff" opacity="0.5"/>
    <path id="Path_10472" data-name="Path 10472" d="M207.18,322.049c2.351,2.283,13.292,4.65,13.292,4.65s-2.677-10.872-5.028-13.15a5.929,5.929,0,0,0-8.263,8.505Z" transform="translate(-136.806 -172.593)" fill="#fff" opacity="0.5"/>
    <path id="Path_10473" data-name="Path 10473" d="M218.685,377.957c3.156.784,13.818-2.7,13.818-2.7s-7.8-8.032-10.977-8.815a5.929,5.929,0,0,0-2.84,11.514Z" transform="translate(-140.974 -198.378)" fill="#fff" opacity="0.5"/>
    <path id="Path_10474" data-name="Path 10474" d="M239.859,419.209c3,1.31,14.075-.326,14.075-.326s-6.312-9.236-9.331-10.52a5.927,5.927,0,1,0-4.734,10.868Z" transform="translate(-151.465 -218.096)" fill="#fff" opacity="0.5"/>
    <path id="Path_10475" data-name="Path 10475" d="M246.669,327.7c-1.778,2.751-11.919,7.5-11.919,7.5s.184-11.193,1.967-13.944a5.929,5.929,0,1,1,9.952,6.449Z" transform="translate(-150.727 -175.756)" fill="#fff" opacity="0.5"/>
    <path id="Path_10476" data-name="Path 10476" d="M268.288,374.681c-2.519,2.1-13.618,3.587-13.618,3.587s3.524-10.625,6.049-12.718a5.93,5.93,0,1,1,7.569,9.131Z" transform="translate(-160.169 -197.39)" fill="#fff" opacity="0.5"/>
    <path id="Path_10477" data-name="Path 10477" d="M285.083,425.25c-2.13,2.488-12.813,5.838-12.813,5.838s1.678-11.046,3.813-13.555a5.931,5.931,0,1,1,9,7.721Z" transform="translate(-168.512 -221.697)" fill="#fff" opacity="0.5"/>
    <path id="Path_10478" data-name="Path 10478" d="M504.5,20.39V201.307H770.079V20.39Z" transform="translate(-239.145 -9.661)" fill="url(#linear-gradient)"/>
    <rect id="Rectangle_950" data-name="Rectangle 950" width="258.825" height="169.435" transform="translate(269.295 18.934)" fill="#fff"/>
    <rect id="Rectangle_951" data-name="Rectangle 951" width="258.825" height="12.466" transform="translate(269.295 10.876)" fill="#eee"/>
    <circle id="Ellipse_252" data-name="Ellipse 252" cx="3.024" cy="3.024" r="3.024" transform="translate(276.117 13.895)" fill="#ff5252"/>
    <circle id="Ellipse_253" data-name="Ellipse 253" cx="3.024" cy="3.024" r="3.024" transform="translate(284.433 13.895)" fill="#ff0"/>
    <circle id="Ellipse_254" data-name="Ellipse 254" cx="3.024" cy="3.024" r="3.024" transform="translate(292.743 13.895)" fill="#69f0ae"/>
    <rect id="Rectangle_952" data-name="Rectangle 952" width="96.449" height="4.019" transform="translate(279.215 43.308)" fill="#ee2d2b" opacity="0.5"/>
    <rect id="Rectangle_953" data-name="Rectangle 953" width="96.449" height="4.019" transform="translate(279.215 51.345)" fill="#ee2d2b" opacity="0.5"/>
    <rect id="Rectangle_954" data-name="Rectangle 954" width="96.449" height="4.019" transform="translate(279.215 59.382)" fill="#ee2d2b" opacity="0.5"/>
    <rect id="Rectangle_955" data-name="Rectangle 955" width="63.202" height="4.019" transform="translate(312.457 67.419)" fill="#ee2d2b" opacity="0.5"/>
    <rect id="Rectangle_956" data-name="Rectangle 956" width="50.784" height="4.019" transform="translate(279.215 75.461)" fill="#ee2d2b" opacity="0.5"/>
    <rect id="Rectangle_957" data-name="Rectangle 957" width="39.091" height="4.019" transform="translate(306.613 83.498)" fill="#ee2d2b" opacity="0.5"/>
    <rect id="Rectangle_958" data-name="Rectangle 958" width="113.623" height="65.395" transform="translate(388.451 71.443)" fill="#ee2d2b" opacity="0.5"/>
    <rect id="Rectangle_959" data-name="Rectangle 959" width="113.623" height="65.395" transform="translate(401.969 77.649)" fill="#eee"/>
    <path id="Path_10479" data-name="Path 10479" d="M902.8,303.106H839.23V291.145C854.762,283.887,878.658,279.811,902.8,303.106Z" transform="translate(-437.261 -160.077)" fill="#ee2d2b"/>
    <g id="Group_696" data-name="Group 696" transform="translate(435.579 125.391)" opacity="0.1">
      <path id="Path_10480" data-name="Path 10480" d="M982.411,301.411V303.1H903.13v-.363S942.142,264.776,982.411,301.411Z" transform="translate(-903.13 -285.467)"/>
    </g>
    <path id="Path_10481" data-name="Path 10481" d="M983.8,301.411V303.1H904.52v-.363S943.532,264.776,983.8,301.411Z" transform="translate(-468.21 -160.076)" fill="#ee2d2b"/>
    <circle id="Ellipse_255" data-name="Ellipse 255" cx="5.844" cy="5.844" r="5.844" transform="translate(409.28 83.498)" fill="#ee2d2b"/>
    <path id="Path_10482" data-name="Path 10482" d="M953.418,208.353c-.668,0-1.415,0-1.92.042a2.335,2.335,0,0,0-.668.137l-3.44,1.236c2.777.068,5.675.047,8.516,0l15.958-.121c1.625,0,3.34-.026,4.7-.126.91-.063,1.578-.163,2.414-.237,3.019-.268,7.427-.216,11.361-.205s8.684-.089,10.067-.484h-8.442c-.91,0-1.867,0-2.672-.047-.942-.053-1.515-.158-2.341-.231-1.368-.116-3.251-.132-5.007-.137C972.327,208.175,962.822,208.406,953.418,208.353Z" transform="translate(-488.531 -123.44)" fill="#f4f4f4"/>
    <path id="Path_10483" data-name="Path 10483" d="M975.684,221.97h-.416a.527.527,0,0,0-.142.032l-.747.268h1.846l3.456-.026c.352,0,.721,0,1.015-.026l.526-.053c.652-.058,1.609-.047,2.462-.042a13.415,13.415,0,0,0,2.183-.105h-2.409c-.174,0-.326-.037-.526-.047-.295,0-.7-.026-1.083-.032C979.777,221.928,977.72,221.97,975.684,221.97Z" transform="translate(-501.325 -129.961)" fill="#f4f4f4"/>
    <path id="Path_10484" data-name="Path 10484" d="M929.144,241.411h-.416a.527.527,0,0,0-.142.032l-.747.268h1.846l3.456-.026c.352,0,.721,0,1.015-.026l.526-.053c.652-.058,1.609-.047,2.462-.042a13.413,13.413,0,0,0,2.183-.105h-2.409c-.174,0-.326-.037-.526-.047-.295,0-.7-.026-1.084-.032C933.242,241.374,931.18,241.422,929.144,241.411Z" transform="translate(-479.264 -139.178)" fill="#f4f4f4"/>
    <path id="Path_10485" data-name="Path 10485" d="M901.644,277.437H898.92s-.857-30.044,2.746-39.317h.689S899.93,272.119,901.644,277.437Z" transform="translate(-465.513 -137.633)" fill="#ee2d2b"/>
    <path id="Path_10486" data-name="Path 10486" d="M892.551,221.59s-2.23,6.18-1.2,8.942c0,0,1.546-5.665,3.351-6.522s3.682,6.522,3.682,6.522,1.052-4.634-.857-8.416a14.928,14.928,0,0,1,5.665,6.007s.342-2.577-4.118-7.89a17.761,17.761,0,0,1,6.522,3.435s.857-1.888-4.466-4.981c0,0,.689-2.23,4.807-1.2,0,0,0-2.919-6.522-2.4,0,0,0-1.888,4.292-1.546,0,0,0-2.4-4.981-1.546a8.017,8.017,0,0,1,1.715-1.888,3.451,3.451,0,0,0-2.4.689s.174-3.093-2.4-4.292l-.342,4.292s-2.888-3.4-2.23-2.746a7.53,7.53,0,0,1,.526,3.261,5.347,5.347,0,0,0-6.522.174s4.466.342,5.149,1.888c0,0-3.776-.689-4.634-.174,0,0,2.919,1.052,2.746,1.715,0,0-5.149,0-5.838,1.888,0,0,5.323.689,5.665,1.2,0,0-6.18,4.466-6.522,5.665,0,0,6.354-3.777,7.364-3.777s-4.634,5.5-4.292,6.869C886.717,226.75,891.351,221.243,892.551,221.59Z" transform="translate(-458.308 -122.644)" fill="#ee2d2b"/>
    <path id="Path_10487" data-name="Path 10487" d="M968.136,283.669h2.1s.657-22.954-2.1-30.039h-.526S969.446,279.6,968.136,283.669Z" transform="translate(-498.116 -144.985)" fill="#ee2d2b"/>
    <path id="Path_10488" data-name="Path 10488" d="M962.13,241.008s1.7,4.734.92,6.838c0,0-1.178-4.329-2.556-4.986s-2.819,4.986-2.819,4.986a10.932,10.932,0,0,1,.657-6.428A11.4,11.4,0,0,0,954,246.011s-.263-1.967,3.156-6.033a13.294,13.294,0,0,0-4.986,2.63s-.657-1.441,3.408-3.8c0,0-.526-1.7-3.682-.92,0,0,0-2.23,4.986-1.836,0,0,0-1.441-3.277-1.178,0,0,0-1.836,3.8-1.178a5.784,5.784,0,0,0-1.31-1.441,2.63,2.63,0,0,1,1.836.526,3.548,3.548,0,0,1,1.836-3.277l.263,3.277s2.2-2.6,1.7-2.1a5.755,5.755,0,0,0-.395,2.493,4.092,4.092,0,0,1,4.986.132s-3.408.263-3.934,1.441c0,0,2.888-.526,3.54-.132,0,0-2.23.789-2.1,1.31,0,0,3.934,0,4.46,1.441,0,0-4.066.526-4.329.92,0,0,4.734,3.408,4.986,4.329,0,0-4.855-2.888-5.639-2.888s3.54,4.208,3.277,5.26C966.591,244.943,963.051,240.745,962.13,241.008Z" transform="translate(-490.669 -133.547)" fill="#ee2d2b"/>
    <path id="Path_10489" data-name="Path 10489" d="M1016.056,285.444h1.3s.405-14.2-1.3-18.6h-.326S1016.866,282.925,1016.056,285.444Z" transform="translate(-520.926 -151.246)" fill="#ee2d2b"/>
    <path id="Path_10490" data-name="Path 10490" d="M1012.288,259s1.052,2.924.568,4.208c0,0-.731-2.682-1.578-3.088s-1.746,3.088-1.746,3.088a6.785,6.785,0,0,1,.405-3.982,7.063,7.063,0,0,0-2.682,2.846s-.163-1.22,1.951-3.734a8.243,8.243,0,0,0-3.088,1.625s-.405-.894,2.1-2.356c0,0-.326-1.052-2.272-.568,0,0,0-1.383,3.088-1.136,0,0,0-.894-2.03-.731,0,0,0-1.136,2.356-.731a3.574,3.574,0,0,0-.81-.894,1.636,1.636,0,0,1,1.136.326,2.2,2.2,0,0,1,1.136-2.03l.163,2.03s1.368-1.61,1.052-1.3a3.561,3.561,0,0,0-.242,1.541,2.53,2.53,0,0,1,3.087.079s-2.1.163-2.435.894a6.076,6.076,0,0,1,2.193-.079s-1.383.489-1.3.81c0,0,2.435,0,2.761.894a12.348,12.348,0,0,0-2.682.568s2.924,2.1,3.088,2.682a22.9,22.9,0,0,0-3.493-1.788c-.489,0,2.193,2.6,2.03,3.251C1015.076,261.434,1012.882,258.836,1012.288,259Z" transform="translate(-516.29 -144.136)" fill="#ee2d2b"/>
    <path id="Path_10491" data-name="Path 10491" d="M919.338,266.22h0l-.273-1.462a.794.794,0,0,0-.247-.573l-1.268-.621h0a1.436,1.436,0,0,1-.226-.379v-.032a.763.763,0,0,0,.147-.3.51.51,0,0,0,0-.084h0a.468.468,0,0,0,.526-.379v-.032a.468.468,0,0,1-.426.352,1.294,1.294,0,0,0,.573-1.052v-.053a.468.468,0,0,0,.216-.316v-.032a.468.468,0,0,1-.226.295,1.289,1.289,0,0,0-.079-.352h.031a.468.468,0,0,0,.468-.468V260.7a.468.468,0,0,1-.468.437h-.058a.768.768,0,0,0,.526-.626s0,0,0-.032a.468.468,0,0,1-.095.253.471.471,0,0,0-.931-.137l-.084-.047a.468.468,0,0,1,.426-.342h-.032a.468.468,0,0,0-.452.316,1.294,1.294,0,0,0-1.631.468c-.1.074-.226.179-.221.268a.9.9,0,0,0-.111.137,1.8,1.8,0,0,0-.147.973,1.052,1.052,0,0,1-.337.894.447.447,0,0,0,.347,0,1.321,1.321,0,0,0,.305-.179.678.678,0,0,0,.216-.205h0a1.05,1.05,0,0,0,.195.1c.026.221.032.473-.063.552h0v-.042a1.188,1.188,0,0,1-.826.237,1.052,1.052,0,0,0-.852.526l-.394,1.688h0v.026h0v.026h0a.126.126,0,0,0,.095.095l.121.031a2.574,2.574,0,0,1-.005.81,7.216,7.216,0,0,0-.142,1.241c.031.21.084,1.294.105,1.809q-.066.26-.105.526l-.589,3.529s-.437,2.825-.416,3.682l-.079.494s-1.194,1.5-.841,1.709.889.305,1.4-.494a1.288,1.288,0,0,1,.326-.494.484.484,0,0,0,.163-.41l-.037-.347h.1a12.189,12.189,0,0,0,.526-3.282s1.089-3.882,1.92-4.492h0l.079-.037.179,3.756-.179,4.145-.037.247s-1.194,1.5-.842,1.709.889.305,1.4-.494a1.288,1.288,0,0,1,.326-.494.484.484,0,0,0,.163-.41l-.053-.526a10.739,10.739,0,0,0,.526-3.871l.363-2.477a2.614,2.614,0,0,0,.316-1.457,13.44,13.44,0,0,0,.352-2.967l.074-1.168h.221l.026-.032h0V266.3h0Zm-1.02,2.372a2.467,2.467,0,0,0-.11-.242h-.032v-.089a1,1,0,0,0,.042-.121.457.457,0,0,0,.068-.253,2.387,2.387,0,0,1,.053.7Zm-.11-1-.074-.784v-.063l.1.994Zm-3.466.105a.273.273,0,0,0-.063.21h0a.888.888,0,0,0,.031.237l-.116.489V267.7a2.073,2.073,0,0,0,.195-.316.526.526,0,0,1-.021.316Z" transform="translate(-471.73 -148.097)" fill="url(#linear-gradient-2)"/>
    <path id="Path_10492" data-name="Path 10492" d="M918.288,262.708a1.724,1.724,0,0,0-.142.936.994.994,0,0,1-.326.863.431.431,0,0,0,.331,0,1.274,1.274,0,0,0,.295-.174.652.652,0,0,0,.205-.2.778.778,0,0,0,.047-.4,4.209,4.209,0,0,1,.063-.71c0-.147.163-.526,0-.621S918.362,262.592,918.288,262.708Z" transform="translate(-474.514 -149.134)" fill="#72351c"/>
    <path id="Path_10493" data-name="Path 10493" d="M913.233,292.429l-.11.721s-1.152,1.446-.81,1.646.857.295,1.352-.473a1.241,1.241,0,0,1,.316-.473h0a.468.468,0,0,0,.158-.395l-.111-1.115Z" transform="translate(-471.874 -163.334)" fill="#333"/>
    <path id="Path_10494" data-name="Path 10494" d="M919.823,292.979l-.11.721s-1.152,1.446-.81,1.646.857.295,1.352-.473a1.241,1.241,0,0,1,.316-.473h0a.468.468,0,0,0,.158-.395l-.11-1.115Z" transform="translate(-474.998 -163.595)" fill="#333"/>
    <path id="Path_10495" data-name="Path 10495" d="M915.769,276.166a2.725,2.725,0,0,0-.742,1.752l-.568,3.4A30,30,0,0,0,914.07,285l.957.326a11.748,11.748,0,0,0,.526-3.156s1.152-4.1,1.957-4.387l.168,3.619-.179,4.082.821.163a11.137,11.137,0,0,0,.568-3.966l.426-2.919a4.323,4.323,0,0,0-.189-2.909Z" transform="translate(-472.737 -155.517)" fill="#4d8af0"/>
    <g id="Group_697" data-name="Group 697" transform="translate(442.227 120.322)" opacity="0.1">
      <path id="Path_10496" data-name="Path 10496" d="M918.221,279.563V279.5c-.8.289-1.957,4.387-1.957,4.387a11.509,11.509,0,0,1-.495,3.124l.105.037a11.743,11.743,0,0,0,.526-3.156S917.422,280.152,918.221,279.563Z" transform="translate(-915.77 -277.57)"/>
      <path id="Path_10497" data-name="Path 10497" d="M922.89,275.83h-.11a4.329,4.329,0,0,1,.184,2.9l-.426,2.919a11.015,11.015,0,0,1-.557,3.945h.105a11.135,11.135,0,0,0,.568-3.966l.426-2.919A4.324,4.324,0,0,0,922.89,275.83Z" transform="translate(-918.714 -275.83)"/>
    </g>
    <path id="Path_10498" data-name="Path 10498" d="M915.9,271.243a.121.121,0,0,0,.095.121,1.894,1.894,0,0,1,.726.347c.4.316-.426-.631-.426-.631l-.279.063Z" transform="translate(-473.604 -153.256)" fill="#f55f44"/>
    <path id="Path_10499" data-name="Path 10499" d="M915.9,271.243a.121.121,0,0,0,.095.121,1.894,1.894,0,0,1,.726.347c.4.316-.426-.631-.426-.631l-.279.063Z" transform="translate(-473.604 -153.256)" opacity="0.1"/>
    <path id="Path_10500" data-name="Path 10500" d="M923.42,272.424a2.54,2.54,0,0,1,1.141-.452.105.105,0,0,0,.105-.105h0a.91.91,0,0,0-1.247.558Z" transform="translate(-477.169 -153.59)" fill="#f55f44"/>
    <path id="Path_10501" data-name="Path 10501" d="M924.667,271.836a.91.91,0,0,0-1.247.558,2.151,2.151,0,0,1,1.194-.452" transform="translate(-477.169 -153.576)" opacity="0.1"/>
    <circle id="Ellipse_256" data-name="Ellipse 256" cx="1.247" cy="1.247" r="1.247" transform="translate(443.895 112.611)" fill="#72351c"/>
    <path id="Path_10502" data-name="Path 10502" d="M919.347,264.6s.179.731,0,.884-.526.426-.263.642,1.22.579,1.536.4.679-.126.594-.489-.779-.289-.794-2.1Z" transform="translate(-475.069 -149.872)" fill="#fdb797"/>
    <path id="Path_10503" data-name="Path 10503" d="M916.13,271a4.559,4.559,0,0,1-.074,1.183,6.948,6.948,0,0,0-.137,1.194c.037.263.116,2,.116,2s-.137,1.525.6,1.383-.116-1.736-.116-1.736l.037-2.1a1.942,1.942,0,0,0,.379-.931C916.972,271.526,916.13,271,916.13,271Z" transform="translate(-473.614 -153.218)" opacity="0.1"/>
    <path id="Path_10504" data-name="Path 10504" d="M916.1,271a4.557,4.557,0,0,1-.074,1.183,6.936,6.936,0,0,0-.137,1.194c.037.263.116,2,.116,2s-.137,1.525.6,1.383-.116-1.736-.116-1.736l.037-2.1a1.942,1.942,0,0,0,.379-.931C916.947,271.526,916.1,271,916.1,271Z" transform="translate(-473.6 -153.218)" fill="#fdb797"/>
    <path id="Path_10505" data-name="Path 10505" d="M924.05,271.19l-.1,1.625a12.969,12.969,0,0,1-.342,2.856s.074,1.578-.668,1.578.126-1.752.126-1.752a7.172,7.172,0,0,0,.195-2.346l-.195-1.951Z" transform="translate(-476.799 -153.308)" opacity="0.1"/>
    <path id="Path_10506" data-name="Path 10506" d="M924.07,271.19l-.1,1.625a12.965,12.965,0,0,1-.342,2.856s.074,1.578-.668,1.578.126-1.752.126-1.752a7.172,7.172,0,0,0,.195-2.346l-.195-1.951Z" transform="translate(-476.809 -153.308)" fill="#fdb797"/>
    <path id="Path_10507" data-name="Path 10507" d="M918.423,267.621s.6.279.931-.526l1.226.6a.763.763,0,0,1,.237.552l.263,1.41a.9.9,0,0,0-1.173.526l.074.794h0a.852.852,0,0,1-.037.594.131.131,0,0,0,0,.105.389.389,0,0,1-.352.526,7.425,7.425,0,0,0-.984.074c-.263.074-1.052-.153-1.32,0s-.82-.116-.82-.116l.153-.642s-.1-.316,0-.426a2.742,2.742,0,0,0-.063-1.373s-.452-.426-.715-.352l.379-1.625a.989.989,0,0,1,.821-.526,1.147,1.147,0,0,0,.794-.226S917.539,267.521,918.423,267.621Z" transform="translate(-473.576 -151.318)" opacity="0.1"/>
    <path id="Path_10508" data-name="Path 10508" d="M918.5,267.538c.163.042.6.095.868-.568l1.226.6a.763.763,0,0,1,.237.552l.263,1.41a.9.9,0,0,0-1.173.526l.074.794.047.158a.447.447,0,0,1-.063.4.142.142,0,0,0,0,.147.389.389,0,0,1-.352.526,7.428,7.428,0,0,0-.984.074c-.263.074-1.052-.153-1.32,0s-.82-.116-.82-.116l.153-.642s-.1-.316,0-.426a2.74,2.74,0,0,0-.063-1.373s-.452-.426-.715-.352l.379-1.625a.989.989,0,0,1,.82-.526,1.147,1.147,0,0,0,.794-.226s-.294.526.484.657Z" transform="translate(-473.595 -151.261)" opacity="0.1"/>
    <path id="Path_10509" data-name="Path 10509" d="M918.486,267.583c.163.042.6.095.868-.568l1.226.6a.763.763,0,0,1,.237.552l.263,1.41a.9.9,0,0,0-1.173.526l.074.794h0a.852.852,0,0,1-.037.594.131.131,0,0,0,0,.105.389.389,0,0,1-.352.526,7.43,7.43,0,0,0-.984.074c-.263.074-1.052-.153-1.32,0s-.82-.116-.82-.116l.153-.642s-.1-.316,0-.426a2.742,2.742,0,0,0-.063-1.373s-.452-.426-.715-.352l.379-1.625a.989.989,0,0,1,.821-.526,1.146,1.146,0,0,0,.794-.226s-.295.526.484.657Z" transform="translate(-473.576 -151.28)" fill="#f55f44"/>
    <path id="Path_10510" data-name="Path 10510" d="M920.8,264.05l-1.052.668a3.469,3.469,0,0,1,.063.347,1.053,1.053,0,0,0,.384.074,1.078,1.078,0,0,0,.694-.316A4.165,4.165,0,0,1,920.8,264.05Z" transform="translate(-475.429 -149.924)" opacity="0.1"/>
    <circle id="Ellipse_257" data-name="Ellipse 257" cx="1.031" cy="1.031" r="1.031" transform="translate(443.695 113.09)" fill="#fdb797"/>
    <circle id="Ellipse_258" data-name="Ellipse 258" cx="0.452" cy="0.452" r="0.452" transform="translate(445.799 112.422)" fill="#72351c"/>
    <path id="Path_10511" data-name="Path 10511" d="M923.172,262.2a.452.452,0,0,1-.452-.421v.032a.452.452,0,1,0,.9,0s0,0,0-.032A.452.452,0,0,1,923.172,262.2Z" transform="translate(-476.837 -148.848)" fill="#72351c"/>
    <path id="Path_10512" data-name="Path 10512" d="M922.751,262.994a.452.452,0,0,1-.368-.494v.032a.454.454,0,1,0,.894.163v-.032A.452.452,0,0,1,922.751,262.994Z" transform="translate(-476.674 -149.189)" fill="#72351c"/>
    <path id="Path_10513" data-name="Path 10513" d="M922.081,265.054a.452.452,0,0,1-.368-.494v.032a.454.454,0,1,0,.894.163v-.032A.452.452,0,0,1,922.081,265.054Z" transform="translate(-476.356 -150.166)" fill="#72351c"/>
    <path id="Path_10514" data-name="Path 10514" d="M923.172,261.751a.452.452,0,0,1-.452-.421v.032a.452.452,0,1,0,.9,0s0,0,0-.032A.452.452,0,0,1,923.172,261.751Z" transform="translate(-476.837 -148.635)" fill="#72351c"/>
    <path id="Path_10515" data-name="Path 10515" d="M922.328,261.257a.452.452,0,0,1,.426-.447h-.031a.452.452,0,0,0,0,.9h.032a.452.452,0,0,1-.426-.458Z" transform="translate(-476.624 -148.388)" fill="#72351c"/>
    <path id="Path_10516" data-name="Path 10516" d="M923.232,269.79a1.632,1.632,0,0,1,0,.679s-.063.594.037.694" transform="translate(-477.071 -152.645)" opacity="0.1"/>
    <path id="Path_10517" data-name="Path 10517" d="M917.412,270a1.63,1.63,0,0,1,0,.678s-.063.594.037.694" transform="translate(-474.312 -152.744)" opacity="0.1"/>
    <path id="Path_10518" data-name="Path 10518" d="M917.38,274.646a.452.452,0,0,0,.3,0,.631.631,0,0,1,.363,0" transform="translate(-474.306 -154.934)" opacity="0.1"/>
    <path id="Path_10519" data-name="Path 10519" d="M917.67,272.853a2.631,2.631,0,0,0,1.052-.163s1.283.316,1.652.089" transform="translate(-474.443 -154.019)" opacity="0.1"/>
    <rect id="Rectangle_960" data-name="Rectangle 960" width="0.794" height="0.489" rx="0.245" transform="translate(442.296 124.246)" fill="#fdb797"/>
    <path id="Path_10520" data-name="Path 10520" d="M915.9,283.53h.426l.368.058h-.131Z" transform="translate(-473.604 -159.158)" fill="#f0e4e4"/>
    <path id="Path_10521" data-name="Path 10521" d="M921.33,279.65h.426l.368.037h-.132Z" transform="translate(-476.178 -157.319)" fill="#f0e4e4"/>
    <path id="Path_10522" data-name="Path 10522" d="M921.33,279.82h.426l.368.037h-.132Z" transform="translate(-476.178 -157.399)" fill="#f0e4e4"/>
    <path id="Path_10523" data-name="Path 10523" d="M921.33,280h.426l.368.037h-.132Z" transform="translate(-476.178 -157.485)" fill="#f0e4e4"/>
    <path id="Path_10524" data-name="Path 10524" d="M921.33,280.15h.426l.368.037h-.132Z" transform="translate(-476.178 -157.556)" fill="#f0e4e4"/>
    <path id="Path_10525" data-name="Path 10525" d="M915.9,284.19h.426l.368.042h-.131Z" transform="translate(-473.604 -159.471)" fill="#f0e4e4"/>
    <path id="Path_10526" data-name="Path 10526" d="M915.9,284.11h.426l.368.042h-.131Z" transform="translate(-473.604 -159.433)" fill="#f0e4e4"/>
    <path id="Path_10527" data-name="Path 10527" d="M915.9,284h.426l.368.042h-.131Z" transform="translate(-473.604 -159.381)" fill="#f0e4e4"/>
    <path id="Path_10528" data-name="Path 10528" d="M915.9,283.94h.426l.368.042h-.131Z" transform="translate(-473.604 -159.352)" fill="#f0e4e4"/>
    <path id="Path_10529" data-name="Path 10529" d="M915.9,283.42h.426l.368.058h-.131Z" transform="translate(-473.604 -159.106)" fill="#f0e4e4"/>
    <path id="Path_10530" data-name="Path 10530" d="M915.9,283.28h.426l.368.058h-.131Z" transform="translate(-473.604 -159.039)" fill="#f0e4e4"/>
    <path id="Path_10531" data-name="Path 10531" d="M920.837,262.35a2.5,2.5,0,0,0,.142,1.136,1.357,1.357,0,0,1-.063,1.084.358.358,0,0,0,.321-.079,1.248,1.248,0,0,0,.231-.274.731.731,0,0,0,.142-.284,1.13,1.13,0,0,0-.074-.479,6.205,6.205,0,0,1-.152-.852c0-.174,0-.678-.195-.726S920.874,262.2,920.837,262.35Z" transform="translate(-475.938 -148.892)" opacity="0.1"/>
    <path id="Path_10532" data-name="Path 10532" d="M920.887,262.339a2.5,2.5,0,0,0,.142,1.136,1.357,1.357,0,0,1-.058,1.094.358.358,0,0,0,.321-.079,1.246,1.246,0,0,0,.232-.273.731.731,0,0,0,.142-.284,1.131,1.131,0,0,0-.074-.479,6.194,6.194,0,0,1-.153-.852c0-.174,0-.679-.195-.726S920.94,262.192,920.887,262.339Z" transform="translate(-475.962 -148.891)" fill="#72351c"/>
    <path id="Path_10533" data-name="Path 10533" d="M919.506,262.421c.084.089.105.226.179.331a.647.647,0,0,0,.526.205.29.29,0,0,1,.147.032c.079.053.084.168.137.247a.289.289,0,0,0,.431,0,.705.705,0,0,0,.126-.431,2.814,2.814,0,0,0,0-.526.837.837,0,0,0-.231-.558.968.968,0,0,0-.405-.174,1.2,1.2,0,0,0-.626-.047,1.124,1.124,0,0,0-.284.142l-.368.247c-.137.095-.389.284-.142.389C919.175,262.316,919.375,262.279,919.506,262.421Z" transform="translate(-475.023 -148.705)" opacity="0.1"/>
    <path id="Path_10534" data-name="Path 10534" d="M919.589,262.382c.084.089.105.226.179.331a.647.647,0,0,0,.526.205.289.289,0,0,1,.147.032c.079.053.084.168.137.247a.289.289,0,0,0,.431,0,.7.7,0,0,0,.163-.452,2.82,2.82,0,0,0,0-.526.836.836,0,0,0-.231-.558.968.968,0,0,0-.405-.174,1.2,1.2,0,0,0-.626-.047,1.124,1.124,0,0,0-.284.142l-.368.247c-.137.095-.389.284-.142.389A.885.885,0,0,1,919.589,262.382Z" transform="translate(-475.079 -148.677)" fill="#72351c"/>
    <path id="Path_10535" data-name="Path 10535" d="M921.38,279.65h.426l.368.037h-.131Z" transform="translate(-476.202 -157.319)" fill="#f0e4e4"/>
    <path id="Path_10536" data-name="Path 10536" d="M921.38,279.82h.426l.368.037h-.131Z" transform="translate(-476.202 -157.399)" fill="#f0e4e4"/>
    <path id="Path_10537" data-name="Path 10537" d="M921.38,280h.426l.368.037h-.131Z" transform="translate(-476.202 -157.485)" fill="#f0e4e4"/>
    <path id="Path_10538" data-name="Path 10538" d="M921.38,280.15h.426l.368.037h-.131Z" transform="translate(-476.202 -157.556)" fill="#f0e4e4"/>
    <path id="Path_10539" data-name="Path 10539" d="M921,289.38h.426l.368.037h-.131Z" transform="translate(-476.022 -161.931)" fill="#f0e4e4"/>
    <path id="Path_10540" data-name="Path 10540" d="M921,289.54h.426l.368.037h-.131Z" transform="translate(-476.022 -162.007)" fill="#f0e4e4"/>
    <path id="Path_10541" data-name="Path 10541" d="M921,289.71h.426l.368.037h-.131Z" transform="translate(-476.022 -162.087)" fill="#f0e4e4"/>
    <path id="Path_10542" data-name="Path 10542" d="M921,289.88h.426l.368.037h-.131Z" transform="translate(-476.022 -162.168)" fill="#f0e4e4"/>
    <path id="Path_10543" data-name="Path 10543" d="M429.677,720.519H387.84V696.95h41.837Zm-40.069-1.767H427.9V698.717H389.607Z" transform="translate(-223.294 -355.126)" fill="#ee2d2b" opacity="0.2"/>
    <path id="Path_10544" data-name="Path 10544" d="M283.455,459.43a9.793,9.793,0,0,0,8.268,1.21,12.824,12.824,0,0,0,2.151-.952c26.825.568,51.667.305,52.63-2.583,1.578-4.786-8.416-28.361-13.46-39.754a12.771,12.771,0,0,0,3.682-3.845c7.006,8.011,20.04,18.346,27.788,18.862,0,0,11.309,26.862,24.032,22.617s14.138-26.862,7.774-29.686l-42.41-26.862V353.865a16.7,16.7,0,0,0,1.773-8.258c0-.526.026-1.052,0-1.578l-1.415-12.724s-.074-.421-.268-1.183c-3.156-12.261-10.188-20.513-20.1-21.739a7.243,7.243,0,0,0,.863-2.856c.205-2.377-.784-4.8-.226-7.122.652-2.7,3.156-4.45,5.213-6.312,4.392-4.018,7.159-9.468,9.831-14.785,2.546-5.065,5.128-10.262,5.786-15.89s-1.052-11.877-5.654-15.19c-3.577-2.583-8.61-3.261-11.182-6.838-1.152-1.61-1.631-3.592-2.425-5.4-2.288-5.212-7.222-8.91-12.576-10.84-18.788-6.764-41.837,1-53.824,16.6-3.913,5.091-6.738,10.919-9.531,16.7l-10.1,20.876c-1.741,3.592-3.424,8.079-1.1,11.324,1.136,1.578,3.082,2.556,3.871,4.339,1.052,2.367-.263,5.465,1.283,7.548.852,1.152,2.33,1.61,3.6,2.283a14.087,14.087,0,0,1,4.35,3.855L239.9,323.858a14.933,14.933,0,0,0-5.712,10.314l-2.193,21.86a26.594,26.594,0,0,0-.989,7.632,13.006,13.006,0,0,0,1.341,6.838l.484-.116c.526,15.332,1.441,37.392,2.346,41.468.526,2.419,3.845,6.685,8.316,11.082l-1.578,4.471h.526l-.526,1.4h1.052c-4.46,16.116-16.595,28.261-16.595,28.261S254.431,458.6,283.455,459.43Zm-26.373-74.469V367.778c2.588.4,4.5,1.294,5.107,2.924Zm7.49-74.784.084.126h-.032Z" transform="translate(-146.755 -129.372)" fill="url(#linear-gradient-3)"/>
    <path id="Path_10545" data-name="Path 10545" d="M420.31,460.786s1.341,47.665,2.688,53.708,20.818,24.19,30.88,24.863c0,0,10.741,25.51,22.828,21.481s13.428-25.51,7.364-28.2l-40.253-25.51V456.11Z" transform="translate(-238.686 -240.964)" fill="#fdb797"/>
    <path id="Path_10546" data-name="Path 10546" d="M333.285,576.09s17.457,37.6,15.443,43.657-114.138,0-114.138,0,20.813-20.813,16.784-43.657Z" transform="translate(-150.651 -297.836)" fill="#565171"/>
    <path id="Path_10547" data-name="Path 10547" d="M348.336,360.584s-2.688,26.183,2.015,32.227-18.8,9.394-20.792,9.394-23.5-7.364-27.525-9.4-7.364-16.784-7.364-16.784,20.14,4.029,26.183-19.461Z" transform="translate(-179.13 -193.775)" fill="#fdb797"/>
    <path id="Path_10548" data-name="Path 10548" d="M345.3,234.418c5.086,1.83,9.773,5.344,11.945,10.293.757,1.72,1.21,3.6,2.3,5.134,2.441,3.408,7.222,4.05,10.62,6.506,4.36,3.156,5.975,9.084,5.37,14.428s-3.061,10.283-5.475,15.09c-2.54,5.055-5.165,10.225-9.336,14.044-1.946,1.783-4.334,3.44-4.955,6.007-.526,2.2.41,4.5.21,6.764-.484,5.581-7.153,8.179-12.724,8.8-2.42.268-5.191.284-6.9-1.457a12,12,0,0,1-1.867-3.23,15.48,15.48,0,0,0-27.609-.284c-1.3,2.514-2.067,5.56-4.445,7.1-3.64,2.351-8.505-.41-11.182-3.808s-4.629-7.669-8.453-9.7c-1.2-.642-2.63-1.052-3.414-2.167-1.467-1.978-.221-4.918-1.215-7.169-.752-1.694-2.6-2.63-3.682-4.124-2.209-3.082-.61-7.364,1.052-10.756l9.594-19.829c2.63-5.491,5.339-11.046,9.052-15.864C305.561,235.365,327.452,227.99,345.3,234.418Z" transform="translate(-169.055 -134.772)" fill="#8f5a6a"/>
    <path id="Path_10549" data-name="Path 10549" d="M306.372,412.629s-26.183,0-32.895-24.169l-22.039,17.079a14.2,14.2,0,0,0-5.423,9.8l-2.1,20.792s-2.351,7.721.337,12.418c0,0,27.877-7.048,28.535,1l-19.451,54.381s30.212.673,38.265-4.7c0,0,32.895,6.712,40.953-.673s16.111-6.711,9.4-23.5c0,0,13.428-13.428,7.364-32.227s-.337.337-.337.337,13.092-6.38,12.418-18.462l-1.341-12.1s-.074-.4-.258-1.12c-4.092-15.927-15.09-24.721-30.549-19.114a14.176,14.176,0,0,1-9.136-.237S325.166,413.991,306.372,412.629Z" transform="translate(-154.619 -208.896)" opacity="0.1"/>
    <path id="Path_10550" data-name="Path 10550" d="M306.372,410.079s-26.183,0-32.895-24.169l-22.039,17.079a14.2,14.2,0,0,0-5.423,9.794l-2.1,20.792s-2.351,7.721.337,12.418c0,0,27.877-7.048,28.535,1l-19.461,54.381s30.212.673,38.265-4.7c0,0,32.895,6.712,40.953-.673s16.111-6.712,9.4-23.5c0,0,13.428-13.428,7.364-32.227s-.337.337-.337.337,13.092-6.38,12.418-18.462l-1.341-12.1s-.074-.4-.258-1.12c-4.092-15.927-15.09-24.721-30.549-19.114a14.176,14.176,0,0,1-9.136-.237S325.166,411.42,306.372,410.079Z" transform="translate(-154.619 -207.688)" fill="#b45181"/>
    <path id="Path_10551" data-name="Path 10551" d="M245.45,471.017s1.341,47.664,2.688,53.708,20.813,24.169,30.88,24.842c0,0,10.741,25.51,22.828,21.481s13.428-25.51,7.364-28.2l-40.28-25.51V466.32Z" transform="translate(-155.799 -245.804)" fill="#fdb797"/>
    <path id="Path_10552" data-name="Path 10552" d="M274.123,469.693s-15.427,10.478-28.866,9.6c0,0-1.341-17.994,2.688-19S269.426,460.3,274.123,469.693Z" transform="translate(-155.606 -242.802)" opacity="0.1"/>
    <path id="Path_10553" data-name="Path 10553" d="M274.123,468.419s-15.427,10.478-28.866,9.6c0,0-1.341-17.994,2.688-19S269.426,459.019,274.123,468.419Z" transform="translate(-155.606 -242.195)" fill="#b45181"/>
    <path id="Path_10554" data-name="Path 10554" d="M336.762,359.1l27.525,4.029s-.621,6.059-.742,13.018a30.9,30.9,0,0,1-32.4-5.26A30.441,30.441,0,0,0,336.762,359.1Z" transform="translate(-196.422 -194.979)" opacity="0.1"/>
    <circle id="Ellipse_259" data-name="Ellipse 259" cx="30.88" cy="30.88" r="30.88" transform="translate(125.57 120.485)" fill="#fdb797"/>
    <path id="Path_10555" data-name="Path 10555" d="M330.261,291.73a9.586,9.586,0,0,0,4.129.589q8.195-.053,16.374-.6c4.134-.279,8.542-.763,11.729-3.408,4.292-3.561,4.971-10.236,2.756-15.353s-6.733-8.889-11.5-11.771a34.342,34.342,0,0,0-8.689-3.94c-8.852-2.4-18.641.526-25.673,6.443s-11.514,14.4-13.886,23.264c-.821,3.066-1.872,6.717-4.907,7.648,2.02,3.361,6.948,3.892,10.493,2.209,5.218-2.483,7.89-11.982,12.576-13.476C328.872,281.684,325.832,289.7,330.261,291.73Z" transform="translate(-181.936 -146.298)" opacity="0.1"/>
    <path id="Path_10556" data-name="Path 10556" d="M330.275,290.474a9.586,9.586,0,0,0,4.129.589q8.195-.053,16.374-.6c4.134-.279,8.542-.763,11.729-3.408,4.292-3.561,4.971-10.236,2.756-15.353s-6.733-8.889-11.5-11.772a34.34,34.34,0,0,0-8.673-3.913c-8.852-2.4-18.641.526-25.673,6.443s-11.514,14.4-13.886,23.264c-.821,3.066-1.872,6.717-4.907,7.648,2.02,3.361,6.948,3.892,10.493,2.209,5.218-2.483,7.89-11.982,12.576-13.476C328.886,280.433,325.846,288.444,330.275,290.474Z" transform="translate(-181.95 -145.715)" fill="#8f5a6a"/>
    <path id="Path_10557" data-name="Path 10557" d="M403.97,546.289a118.93,118.93,0,0,0-30.88-4.029" transform="translate(-216.303 -281.8)" opacity="0.1"/>
    <path id="Path_10558" data-name="Path 10558" d="M300.33,481s10.073,7.364,7.364,11.414" transform="translate(-181.813 -252.762)" opacity="0.1"/>
    <g id="Group_698" data-name="Group 698" transform="translate(67.26 304.358)" opacity="0.7">
      <path id="Path_10559" data-name="Path 10559" d="M457.513,578.64H127.88v28.819h19.188v90.685H439.009V607.459h18.5Z" transform="translate(-127.88 -578.64)" fill="url(#linear-gradient)"/>
    </g>
    <rect id="Rectangle_961" data-name="Rectangle 961" width="285.992" height="102.719" transform="translate(89.414 321.142)" fill="#e0e0e0"/>
    <rect id="Rectangle_962" data-name="Rectangle 962" width="285.992" height="16.111" transform="translate(89.414 326.512)" opacity="0.1"/>
    <rect id="Rectangle_963" data-name="Rectangle 963" width="322.921" height="27.525" transform="translate(70.616 309.728)" fill="#e0e0e0"/>
    <rect id="Rectangle_964" data-name="Rectangle 964" width="61.766" height="8.726" rx="4.363" transform="translate(131.63 302.954)" fill="#535461"/>
    <g id="Group_699" data-name="Group 699" transform="translate(169.222 205.647)" opacity="0.7">
      <rect id="Rectangle_965" data-name="Rectangle 965" width="153.508" height="106.143" rx="28.22" fill="url(#linear-gradient)"/>
    </g>
    <rect id="Rectangle_966" data-name="Rectangle 966" width="145.418" height="104.181" rx="26.84" transform="translate(171.962 207.609)" fill="#3e3f49"/>
    <rect id="Rectangle_967" data-name="Rectangle 967" width="145.418" height="104.181" rx="26.84" transform="translate(173.977 207.609)" fill="#535461"/>
    <circle id="Ellipse_260" data-name="Ellipse 260" cx="4.697" cy="4.697" r="4.697" transform="translate(248.782 254.284)" fill="#e0e0e0"/>
  </g>
</svg>
