<svg xmlns="http://www.w3.org/2000/svg" xmlns:xlink="http://www.w3.org/1999/xlink" width="203" height="203" viewBox="0 0 203 203">
  <defs>
    <radialGradient id="radial-gradient" cx="0.53" cy="0.5" r="0.902" gradientUnits="objectBoundingBox">
      <stop offset="0" stop-color="#fff"/>
      <stop offset="1" stop-color="#f5f5f5"/>
    </radialGradient>
  </defs>
  <g id="Best_Policy" data-name="Best Policy" transform="translate(-858.855 -7669)">
    <g id="Ellipse_195" data-name="Ellipse 195" transform="translate(858.855 7669)" stroke="#ed4041" stroke-width="5" fill="url(#radial-gradient)">
      <circle cx="101.5" cy="101.5" r="101.5" stroke="none"/>
      <circle cx="101.5" cy="101.5" r="99" fill="none"/>
    </g>
    <g id="Smart_Policy" data-name="Smart Policy" transform="translate(844.313 7659.445)">
      <rect id="Rectangle_917" data-name="Rectangle 917" width="30.612" height="8.009" rx="2.856" transform="translate(51.293 75.876)" fill="#e50019"/>
      <rect id="Rectangle_918" data-name="Rectangle 918" width="30.612" height="8.009" rx="2.856" transform="translate(51.293 98.645)" fill="#e50019"/>
      <rect id="Rectangle_919" data-name="Rectangle 919" width="30.612" height="8.009" rx="2.856" transform="translate(51.293 121.414)" fill="#e50019"/>
      <rect id="Rectangle_920" data-name="Rectangle 920" width="48.776" height="8.009" rx="2.856" transform="translate(51.293 144.182)" fill="#e50019"/>
      <path id="Path_10405" data-name="Path 10405" d="M125.769,163.2a2.352,2.352,0,0,1-1.057-.261c-16.586-8.164-27.758-19.9-34.162-35.867A63.322,63.322,0,0,1,86.376,109.6a86.826,86.826,0,0,1-.276-8.928c0-1.089.006-2.179,0-3.267-.017-1.765-.013-3.532-.008-5.3l.006-18.783A2.336,2.336,0,0,1,88.2,70.717l30.994-6.24,1.443-.28c1.286-.248,2.616-.5,3.926-.844a4.1,4.1,0,0,1,1.061-.13,11.618,11.618,0,0,1,2.4.355l.76.16q7.464,1.491,14.923,3s17.449,3.5,19.922,4a2.341,2.341,0,0,1,1.9,2.31q0,4.816.039,9.632c.045,7.482.091,15.22-.091,22.815a62.3,62.3,0,0,1-11.906,35.378,69.671,69.671,0,0,1-26.4,21.951A3.189,3.189,0,0,1,125.769,163.2Zm.16-95.531a4.909,4.909,0,0,0-.949.091l-16.7,3.356Q99.891,72.8,91.5,74.466a2.232,2.232,0,0,0-1.947,2.453q.034,13.608.013,27.214c0,1.677.09,3.463.279,5.621a56.9,56.9,0,0,0,4.512,17.817c5.9,13.5,16.091,23.891,30.291,30.892a2.6,2.6,0,0,0,1.157.282h0a2.771,2.771,0,0,0,1.228-.306,62.455,62.455,0,0,0,9.175-5.374c17.009-12.2,25.707-28.874,25.85-49.558.02-2.747.014-5.493.008-8.24l-.006-7c0-3.832,0-7.662.017-11.492A2.1,2.1,0,0,0,160.2,74.5c-1.954-.363-3.9-.761-5.849-1.159l-7.844-1.588q-8.8-1.781-17.6-3.533c-.264-.052-.526-.122-.789-.189A8.575,8.575,0,0,0,125.929,67.669Z" transform="translate(13.986)" fill="#1a1818"/>
      <path id="Path_10406" data-name="Path 10406" d="M123.883,68.8c-.254.029-.472.038-.686.081q-15.737,3.171-31.475,6.33c-.646.128-.758.373-.757.953q.023,13.074.008,26.149a53.919,53.919,0,0,0,4.6,22.051c5.737,13.022,15.36,22.282,27.931,28.657a2.291,2.291,0,0,0,.381.114Z" transform="translate(15.948 2.243)" fill="#e6101e"/>
    </g>
  </g>
</svg>
