<svg xmlns="http://www.w3.org/2000/svg" xmlns:xlink="http://www.w3.org/1999/xlink" width="203" height="203" viewBox="0 0 203 203">
  <defs>
    <radialGradient id="radial-gradient" cx="0.53" cy="0.5" r="0.902" gradientUnits="objectBoundingBox">
      <stop offset="0" stop-color="#fff"/>
      <stop offset="1" stop-color="#f5f5f5"/>
    </radialGradient>
  </defs>
  <g id="Best_ui" data-name="Best ui" transform="translate(-291 -7669)">
    <g id="Ellipse_197" data-name="Ellipse 197" transform="translate(291 7669)" stroke="#ed4041" stroke-width="5" fill="url(#radial-gradient)">
      <circle cx="101.5" cy="101.5" r="101.5" stroke="none"/>
      <circle cx="101.5" cy="101.5" r="99" fill="none"/>
    </g>
    <g id="Best_UI-2" data-name="Best UI" transform="translate(-176.404 45.668)">
      <g id="Group_693" data-name="Group 693" transform="translate(509.145 7669)">
        <g id="Group_692" data-name="Group 692" transform="translate(0 0)">
          <circle id="Ellipse_230" data-name="Ellipse 230" cx="4.587" cy="4.587" r="4.587" transform="translate(67.708 10.489)" fill="#ed4041"/>
          <circle id="Ellipse_231" data-name="Ellipse 231" cx="4.587" cy="4.587" r="4.587" transform="translate(80.646 10.5)" fill="#ed4041"/>
          <circle id="Ellipse_232" data-name="Ellipse 232" cx="4.587" cy="4.587" r="4.587" transform="translate(93.439 10.489)" fill="#ed4041"/>
          <path id="Path_10407" data-name="Path 10407" d="M177.622-101.342c-1.185,1.773-2.884,2.123-4.928,2.12-34.461-.044-68.922-.006-103.383-.09-2.39-.006-2.958.61-2.949,2.967.071,19.4,0,38.794-.032,58.19-.065.052-.191.13-.183.149a2.922,2.922,0,0,0,.216.361c1.252,2.675,3.344,3.607,6.286,3.6q46.206-.1,92.413,0c2.933.006,5.041-.92,6.294-3.6.069-.047.2-.109.2-.137a2.054,2.054,0,0,0-.159-.373q.009-21.679.016-43.36c.065-.043.191-.1.186-.124a2.434,2.434,0,0,0-.152-.364c1.477-3.216,3.52-3.4,6.178-.543v46.468c-2.8,6.786-8.164,8.412-15.057,8.365-29.92-.2-59.842-.085-89.764-.09-8.356,0-12.7-4.335-12.7-12.66q0-38.217,0-76.431c0-8.241,4.283-12.562,12.467-12.562,30.444,0,60.889.093,91.332-.074,6.8-.038,11.5,2.266,13.72,8.87Zm-58.777-4.223c16.448,0,32.9-.052,49.344.056,2.394.016,3.439-.37,3.177-3.039-.268-2.756-.056-5.561-.06-8.345-.006-4.723-1.536-6.278-6.222-6.281q-17.883-.011-35.767,0-28.457,0-56.915,0c-4.345,0-5.973,1.653-5.979,5.982,0,3.043.149,6.1-.052,9.13-.141,2.136.626,2.547,2.609,2.538C85.6-105.6,102.223-105.565,118.845-105.565Z" transform="translate(-60.104 129.531)"/>
          <path id="Path_10408" data-name="Path 10408" d="M75.847-70.155a132.438,132.438,0,0,1-.046-16.2c.071-.041.2-.093.2-.124a2.061,2.061,0,0,0-.128-.38c.586-1.668,1.936-2.066,3.5-2.066q32.2-.007,64.392,0c1.549,0,2.926.375,3.5,2.069-.056.054-.171.138-.159.159a2.555,2.555,0,0,0,.23.336,136.338,136.338,0,0,1,.025,15.669c-.071.043-.208.1-.2.128a2.1,2.1,0,0,0,.141.381,2.449,2.449,0,0,1-2.054,2.013c-.183-.265-.345-.241-.487.035-12.057.035-24.115.1-36.172.1-10.061,0-20.123-.063-30.185-.1-.141-.28-.3-.3-.487-.037a1.815,1.815,0,0,1-1.64-1.269Zm35.741-4.193h24c5.72,0,5.613,0,5.744-5.629.052-2.21-.642-2.708-2.774-2.7-16.868.09-33.737.05-50.6.05-6.181,0-6.1,0-6.132,6.063-.012,1.907.63,2.266,2.378,2.25C93.329-74.393,102.459-74.349,111.588-74.349Z" transform="translate(-52.795 148.712)" fill="#ed4041"/>
          <line id="Line_23" data-name="Line 23" x2="70.674" transform="translate(22.609 46.38)" fill="none" stroke="#ed4041" stroke-width="3"/>
        </g>
      </g>
    </g>
  </g>
</svg>
