<svg xmlns="http://www.w3.org/2000/svg" xmlns:xlink="http://www.w3.org/1999/xlink" width="203" height="203" viewBox="0 0 203 203">
  <defs>
    <radialGradient id="radial-gradient" cx="0.53" cy="0.5" r="0.902" gradientUnits="objectBoundingBox">
      <stop offset="0" stop-color="#fff"/>
      <stop offset="1" stop-color="#f5f5f5"/>
    </radialGradient>
  </defs>
  <g id="communication" transform="translate(-291 -7023)">
    <g id="Ellipse_192" data-name="Ellipse 192" transform="translate(291 7023)" stroke="#ed4041" stroke-width="5" fill="url(#radial-gradient)">
      <circle cx="101.5" cy="101.5" r="101.5" stroke="none"/>
      <circle cx="101.5" cy="101.5" r="99" fill="none"/>
    </g>
    <g id="Communication-2" data-name="Communication" transform="translate(327.039 7066.754)">
      <path id="Path_780" data-name="Path 780" d="M4661.11,2043.139a13.18,13.18,0,0,1,2.542-5.972,11.241,11.241,0,0,1,17.565.041,1.363,1.363,0,0,0,1.824.515c4.969-1.706,9.955-3.364,14.937-5.034.454-.152.917-.277,1.395-.42l1.815,5.357c-2.939.983-5.829,1.947-8.718,2.915s-5.789,1.946-8.765,2.946a11.665,11.665,0,0,1-1.524,6.444,11.042,11.042,0,0,1-10.187,5.585,10.909,10.909,0,0,1-10.211-7.607c-.281-.752-.452-1.544-.674-2.318Z" transform="translate(-4659.197 -1966.176)"/>
      <path id="Path_781" data-name="Path 781" d="M5624.785,1508.343a19.423,19.423,0,1,1,19.6,19.326A19.43,19.43,0,0,1,5624.785,1508.343Z" transform="translate(-5578.67 -1447.727)" fill="#ef1724"/>
      <path id="Path_782" data-name="Path 782" d="M4619.394,2041.18a12.268,12.268,0,1,1,12.378,12.207A12.271,12.271,0,0,1,4619.394,2041.18Z" transform="translate(-4619.394 -1962.959)" fill="#ef1724"/>
      <path id="Path_783" data-name="Path 783" d="M6287.477,647.13l-4.841-2.894c.238-.429.442-.82.667-1.2,2.955-4.98,5.9-9.965,8.885-14.927a1.168,1.168,0,0,0-.105-1.594,11.2,11.2,0,0,1-.59-13.722,11.295,11.295,0,0,1,20.18,9.281c-1.67,5.91-7.274,9.515-12.982,8.292a1.372,1.372,0,0,0-1.731.813c-2.908,4.96-5.861,9.893-8.8,14.835C6287.952,646.362,6287.737,646.7,6287.477,647.13Z" transform="translate(-6206.349 -607.272)"/>
      <path id="Path_784" data-name="Path 784" d="M6601.752,1786.3l.585-5.659q3.256.311,6.517.623c2.191.211,4.386.4,6.573.653a1.1,1.1,0,0,0,1.292-.764,10.759,10.759,0,0,1,10.111-6.512,10.914,10.914,0,0,1,10.342,6.567c3.334,6.746-1.581,15.219-9.077,15.921a11.27,11.27,0,0,1-12.077-8.486c-.208-.9-.688-1.036-1.44-1.105C6610.32,1787.148,6606.066,1786.723,6601.752,1786.3Z" transform="translate(-6510.828 -1720.368)"/>
      <path id="Path_785" data-name="Path 785" d="M6051.4,2446.959l5.493-1.292c1.046,4.538,2.092,9.081,3.153,13.688a11.383,11.383,0,0,1,7.329,3.047,10.753,10.753,0,0,1,3.17,11.166,10.555,10.555,0,0,1-8.965,8.141,11.207,11.207,0,0,1-7.8-20.6c.693-.455.61-.918.464-1.542q-1.39-5.957-2.748-11.921C6051.45,2447.445,6051.439,2447.243,6051.4,2446.959Z" transform="translate(-5982.845 -2360.612)"/>
      <path id="Path_786" data-name="Path 786" d="M5082.745,983.537l-3.891,4.142-7.563-7.123a11.36,11.36,0,0,1-6.824,1.651,10.8,10.8,0,0,1-9.581-6.927,11.26,11.26,0,0,1,13.608-15.1,11.113,11.113,0,0,1,7.075,15.338,1.15,1.15,0,0,0,.329,1.563C5078.2,979.207,5080.461,981.376,5082.745,983.537Z" transform="translate(-5033.999 -942.751)"/>
      <path id="Path_787" data-name="Path 787" d="M5026.348,938.651a12.268,12.268,0,1,1,12.378,12.207A12.273,12.273,0,0,1,5026.348,938.651Z" transform="translate(-5007.683 -911)" fill="#ef1724"/>
      <path id="Path_788" data-name="Path 788" d="M6411.567,603.573a12.268,12.268,0,1,1,12.378,12.207A12.272,12.272,0,0,1,6411.567,603.573Z" transform="translate(-6329.366 -591.291)" fill="#ef1724"/>
      <path id="Path_789" data-name="Path 789" d="M6895.219,1777.586a12.268,12.268,0,1,1,12.378,12.207A12.272,12.272,0,0,1,6895.219,1777.586Z" transform="translate(-6790.833 -1711.456)" fill="#ef1724"/>
      <path id="Path_790" data-name="Path 790" d="M6048.262,2728.457a12.268,12.268,0,1,1,12.379,12.207A12.273,12.273,0,0,1,6048.262,2728.457Z" transform="translate(-5982.724 -2618.713)" fill="#ef1724"/>
    </g>
  </g>
</svg>
