<svg xmlns="http://www.w3.org/2000/svg" width="564.947" height="403.842" viewBox="0 0 564.947 403.842">
  <g id="customizeable" transform="translate(0)">
    <path id="Path_10661" data-name="Path 10661" d="M699.2,658.13H347.385v-1.337H699.443Z" transform="translate(-134.496 -254.288)" fill="#3f3d56"/>
    <path id="Path_10662" data-name="Path 10662" d="M141.951,120.513a2.884,2.884,0,0,0-2.881,2.881V289.333a2.884,2.884,0,0,0,2.881,2.881h329a2.884,2.884,0,0,0,2.881-2.881V123.394a2.884,2.884,0,0,0-2.881-2.881Z" transform="translate(-139.07 -120.513)" fill="#e6e6e6"/>
    <path id="Path_10663" data-name="Path 10663" d="M149.472,128.034a2.884,2.884,0,0,0-2.881,2.881V287.636a2.884,2.884,0,0,0,2.881,2.881h319.78a2.884,2.884,0,0,0,2.881-2.881V130.915a2.884,2.884,0,0,0-2.881-2.881Z" transform="translate(-141.982 -123.425)" fill="#fff"/>
    <path id="Path_10664" data-name="Path 10664" d="M262.333,244.519h-67.99a4.038,4.038,0,0,1-4.033-4.033V172.5a4.038,4.038,0,0,1,4.033-4.033h67.99a4.038,4.038,0,0,1,4.033,4.033v67.989A4.038,4.038,0,0,1,262.333,244.519Zm-67.99-74.9a2.884,2.884,0,0,0-2.881,2.881v67.989a2.884,2.884,0,0,0,2.881,2.881h67.99a2.884,2.884,0,0,0,2.881-2.881V172.5a2.884,2.884,0,0,0-2.881-2.881Z" transform="translate(-158.908 -139.077)" fill="#3f3d56"/>
    <path id="Path_10665" data-name="Path 10665" d="M422.165,244.519H354.176a4.038,4.038,0,0,1-4.033-4.033V172.5a4.038,4.038,0,0,1,4.033-4.033h67.989A4.038,4.038,0,0,1,426.2,172.5v67.989a4.038,4.038,0,0,1-4.033,4.034Zm-67.989-74.9A2.884,2.884,0,0,0,351.3,172.5v67.989a2.884,2.884,0,0,0,2.881,2.881h67.989a2.884,2.884,0,0,0,2.881-2.881V172.5a2.884,2.884,0,0,0-2.881-2.881Z" transform="translate(-220.79 -139.077)" fill="#e6e6e6"/>
    <path id="Path_10666" data-name="Path 10666" d="M363.365,178.8a2.884,2.884,0,0,0-2.881,2.881V239.3a2.884,2.884,0,0,0,2.881,2.881h57.618a2.884,2.884,0,0,0,2.881-2.881V181.686a2.884,2.884,0,0,0-2.881-2.881Z" transform="translate(-224.794 -143.082)" fill="#e6e6e6"/>
    <path id="Path_10667" data-name="Path 10667" d="M204,178.8a2.884,2.884,0,0,0-2.881,2.881V239.3A2.884,2.884,0,0,0,204,242.185h57.618A2.884,2.884,0,0,0,264.5,239.3V181.686a2.884,2.884,0,0,0-2.881-2.881Z" transform="translate(-163.094 -143.082)" fill="#3f3d56"/>
    <path id="Path_10668" data-name="Path 10668" d="M522.727,178.8a2.884,2.884,0,0,0-2.881,2.881V239.3a2.884,2.884,0,0,0,2.881,2.881h57.618a2.884,2.884,0,0,0,2.881-2.881V181.686a2.884,2.884,0,0,0-2.881-2.881Z" transform="translate(-286.493 -143.082)" fill="#ee2d2b"/>
    <path id="Path_10669" data-name="Path 10669" d="M582,244.519H514.008a4.038,4.038,0,0,1-4.033-4.033V172.5a4.038,4.038,0,0,1,4.033-4.033H582a4.038,4.038,0,0,1,4.033,4.033v67.989A4.038,4.038,0,0,1,582,244.519Zm-67.989-74.9a2.884,2.884,0,0,0-2.881,2.881v67.989a2.884,2.884,0,0,0,2.881,2.881H582a2.884,2.884,0,0,0,2.881-2.881V172.5A2.884,2.884,0,0,0,582,169.615Z" transform="translate(-282.672 -139.077)" fill="#ee2d2b"/>
    <circle id="Ellipse_286" data-name="Ellipse 286" cx="9.795" cy="9.795" r="9.795" transform="translate(130.217 117.541)" fill="#e6e6e6" opacity="0.8"/>
    <circle id="Ellipse_287" data-name="Ellipse 287" cx="9.795" cy="9.795" r="9.795" transform="translate(185.53 117.541)" fill="#e6e6e6" opacity="0.4"/>
    <circle id="Ellipse_288" data-name="Ellipse 288" cx="9.795" cy="9.795" r="9.795" transform="translate(157.873 117.541)" fill="#e6e6e6" opacity="0.6"/>
    <circle id="Ellipse_289" data-name="Ellipse 289" cx="9.795" cy="9.795" r="9.795" transform="translate(32.266 117.541)" fill="#3f3d56" opacity="0.8"/>
    <circle id="Ellipse_290" data-name="Ellipse 290" cx="9.795" cy="9.795" r="9.795" transform="translate(87.579 117.541)" fill="#3f3d56" opacity="0.4"/>
    <circle id="Ellipse_291" data-name="Ellipse 291" cx="9.795" cy="9.795" r="9.795" transform="translate(59.923 117.541)" fill="#3f3d56" opacity="0.6"/>
    <circle id="Ellipse_292" data-name="Ellipse 292" cx="9.795" cy="9.795" r="9.795" transform="translate(228.167 117.541)" fill="#ee2d2b" opacity="0.8"/>
    <circle id="Ellipse_293" data-name="Ellipse 293" cx="9.795" cy="9.795" r="9.795" transform="translate(283.48 117.541)" fill="#ee2d2b" opacity="0.4"/>
    <circle id="Ellipse_294" data-name="Ellipse 294" cx="9.795" cy="9.795" r="9.795" transform="translate(255.824 117.541)" fill="#ee2d2b" opacity="0.6"/>
    <path id="Path_10670" data-name="Path 10670" d="M414.181,115.762,400.367,98l8.033-6.248,6.541,8.409,22.1-23.324,7.389,7Z" transform="translate(-155.009 -29.749)" fill="#fff"/>
    <path id="Path_10671" data-name="Path 10671" d="M762.13,437.294a1.944,1.944,0,0,0-2.434-.24l-14.867,9.683a1.956,1.956,0,0,0-.313,3.025l37.808,37.644a1.956,1.956,0,0,0,2.786-.027l12.39-12.824a1.96,1.96,0,0,0-.04-2.758Z" transform="translate(-373.255 -242.943)" fill="#3f3d56"/>
    <path id="Path_10672" data-name="Path 10672" d="M750.013,449l1.539-.981a1.466,1.466,0,0,0,2.11,1.925l9.956-6.845a1.465,1.465,0,0,0-.387-2.6l.793-.505a.533.533,0,0,1,.666.075l33.494,32.915a.533.533,0,0,1-.013.763L786.006,485.6a.533.533,0,0,1-.742-.01L749.924,449.83a.533.533,0,0,1,.09-.827Z" transform="translate(-375.511 -244.172)" fill="#fff"/>
    <path id="Path_10673" data-name="Path 10673" d="M652.247,347.268l-10.275,9.688L617.533,332.81l12.4-8.073Z" transform="translate(-239.088 -125.727)" fill="#ee2d2b"/>
    <path id="Path_10674" data-name="Path 10674" d="M756.419,466.416a.356.356,0,0,0,0-.5l-2.137-2.137a.364.364,0,0,0-.5,0,.356.356,0,0,0,0,.5l2.137,2.137A.364.364,0,0,0,756.419,466.416Z" transform="translate(-377.024 -253.374)" fill="#e6e6e6"/>
    <path id="Path_10675" data-name="Path 10675" d="M762.294,471.785l-2.137-2.137a.356.356,0,1,0-.5.5l2.137,2.137a.356.356,0,1,0,.5-.5Z" transform="translate(-379.299 -255.646)" fill="#e6e6e6"/>
    <circle id="Ellipse_295" data-name="Ellipse 295" cx="2.4" cy="2.4" r="2.4" transform="translate(410.522 227.457)" fill="#ee2d2b"/>
    <path id="Path_10676" data-name="Path 10676" d="M925.11,462l-1.85,9.019a7.465,7.465,0,0,0,9.8,8.539h0a7.465,7.465,0,0,0,4.673-9.16l-2.488-8.4,22.515-65.856H938.619Z" transform="translate(-442.623 -227.23)" fill="#ffb8b8"/>
    <circle id="Ellipse_296" data-name="Ellipse 296" cx="17.449" cy="17.449" r="17.449" transform="translate(444.775 68.728)" fill="#ffb8b8"/>
    <path id="Path_10677" data-name="Path 10677" d="M886.584,296.714l23.078-2.814c-5.294-6.638-7.3-13.569-5.629-20.826l-20.826,2.251Z" transform="translate(-427.175 -179.579)" fill="#ffb8b8"/>
    <path id="Path_10678" data-name="Path 10678" d="M841.7,403.691l54.6-12.383c11.67-9.076,19.251-27.079,25.108-48.849,4.268-15.865-3.4-32.755-18.471-39.3q-.541-.235-1.092-.452l-12.3-4.839-20.263,1.689-7.229,1.972a8.2,8.2,0,0,0-5.95,6.688C846.38,343.884,839.973,376.962,841.7,403.691Z" transform="translate(-410.995 -189.18)" fill="#ee2d2b"/>
    <path id="Path_10679" data-name="Path 10679" d="M804.756,263.216h24.2l-7.88-47.281-16.323,1.688Z" transform="translate(-311.575 -83.603)" fill="#ee2d2b"/>
    <path id="Path_10680" data-name="Path 10680" d="M810.648,573.718h14.635l30.676-107.789L867.8,573.718h17.15l6.754-172.8c-2.578-13.258-2.523-29.058-1.126-46.155,12.07-8.45,7.65-28.509,8.986-48.663a.768.768,0,0,0-.175-.54l-7.778-4.043a.761.761,0,0,0-1.333.557c-.2,14.091,3.6,30.849-2.514,41.995-6.644-22.711-15.3-41.779-32.159-46.037a1.867,1.867,0,0,0-.968.019l-3.139.9a1.865,1.865,0,0,0-.449,3.387c15.421,9.527,25.388,25.479,26.02,52.428-12,16.981-23.684,27.033-44.718,39.395a7.843,7.843,0,0,0-3.818,5.961Z" transform="translate(-399.082 -189.221)" fill="#2f2e41"/>
    <path id="Path_10681" data-name="Path 10681" d="M882.984,261.677l12.373-2.343,7.361-12.575a16.718,16.718,0,0,0-1.957-19.58h0a16.718,16.718,0,0,0-14.835-5.416l-16.036,2.291a10.589,10.589,0,0,0-8.974,12.053l10.8,1.838Z" transform="translate(-418.499 -159.648)" fill="#2f2e41"/>
    <path id="Path_10682" data-name="Path 10682" d="M779.113,765H804.89a8.48,8.48,0,0,0,8.391-9.7l-1.618-11.1-11.7-.867L776.714,754.21a5.663,5.663,0,0,0-3.238,5.666h0A5.662,5.662,0,0,0,779.113,765Z" transform="translate(-384.681 -361.649)" fill="#2f2e41"/>
    <path id="Path_10683" data-name="Path 10683" d="M874.633,765H900.41a8.48,8.48,0,0,0,8.391-9.7l-1.618-11.1-11.7-.867-23.25,10.875A5.663,5.663,0,0,0,869,759.876h0A5.662,5.662,0,0,0,874.633,765Z" transform="translate(-421.663 -361.649)" fill="#2f2e41"/>
    <path id="Path_10684" data-name="Path 10684" d="M787.877,410.625,776.725,414.5a7.886,7.886,0,0,0-2.283,13.65h0a7.886,7.886,0,0,0,9.14.43l10.164-6.542,34.706-35.278,5.379-41.465a31.574,31.574,0,0,0-11.137-28.35h0l-11.318,63.163Z" transform="translate(-383.898 -196.566)" fill="#ffb9b9"/>
    <path id="Path_10685" data-name="Path 10685" d="M837.284,362.484H862.05l-.563-59.1h0a28.545,28.545,0,0,0-21.566,25.912Z" transform="translate(-409.395 -191.314)" fill="#ee2d2b"/>
    <ellipse id="Ellipse_297" data-name="Ellipse 297" cx="3.064" cy="3.677" rx="3.064" ry="3.677" transform="translate(454.067 84.87)" fill="#ffb8b8"/>
  </g>
</svg>
