<svg xmlns="http://www.w3.org/2000/svg" width="252" height="47.5" viewBox="0 0 252 47.5"><defs><style>.a{fill:#ed4041;}.b{fill:#030504;}.c{fill:#fff;font-size:9px;font-family:Poppins-Medium, Poppins;font-weight:500;letter-spacing:0.1em;}</style></defs><g transform="translate(483)"><g transform="translate(-483)"><g transform="translate(10.61)"><path class="a" d="M4387.038-1149.658H4374.05l7.94,5.875,7.94-5.875h-3.686" transform="translate(-4374.05 1149.658)"/></g><g transform="translate(0 0.054)"><path class="b" d="M4385.636-1148.809l-1.78,1.317-9.142,6.766-9.143-6.766-1.78-1.317H4356.6v33.056l18.109,13.4,18.108-13.4v-33.056Zm-10.922,9.721,4.8-3.548h3.571l3.215,2.379v6.453l-3.453,4.432,0,6.055-3.088,3.424-4.385-1.775v-1.649l4.538-3.564-.853-8.129h.043l5.11-1.317h-6.616l.851,8.117-3.732,2.212-3.733-2.212.852-8.117h-6.616l5.175,1.317h-.022l-.853,8.129,4.539,3.564v1.649l-4.386,1.775-3.088-3.424,0-6.055-3.453-4.432v-6.453l3.215-2.379h3.572Zm-16.792-8.4h5.434l.165.122-5.6,4.15Zm0,5.913,6.708-4.97,3.507,2.595h-2.225l-7.991,5.913Zm0,5.175,3.891-2.879v3.537l-3.891,2.879Zm0,5.176,3.891-2.879v.757l1.377,1.762-5.268,3.9Zm0,5.176,6.081-4.5,1.264,1.618v.984l-7.344,5.435Zm0,5.175,7.344-5.434v3.537l-7.344,5.434Zm.482,4.818,7.751-5.736,1.923,2.115-7.284,5.39Zm7.329,5.422-3.831-2.835,3.831-2.835Zm4.162,3.078-2.843-2.1v-7.619l1.918-1.419.925.7Zm4.161,3.079-2.844-2.1V-1117l2.844,2.154Zm4.16-2.1-2.843,2.1v-10.369l2.843-2.154Zm-3.5-9.585-3.955-2.746,3.955-1.6,3.955,1.6Zm7.662,6.506-2.843,2.1V-1118l.924-.7,1.918,1.419Zm1.317-.975v-5.67l3.831,2.835Zm4.939-3.654-7.284-5.39,1.924-2.115,7.75,5.736Zm2.873-3.05-7.344-5.434v-3.537l7.344,5.434Zm0-5.175-7.344-5.435v-.984l1.264-1.618,6.08,4.5Zm0-5.176-5.268-3.9,1.377-1.762v-.757l3.891,2.879Zm0-5.176-3.891-2.879v-3.537l3.891,2.879Zm0-5.175-7.99-5.913h-2.225l3.506-2.595,6.708,4.97Zm0-5.179-5.6-4.15.166-.122h5.433Z" transform="translate(-4356.162 1149.25)"/><path class="b" d="M4374.4-1102.12l-18.55-13.726v-33.72h7.772l10.777,7.974,10.777-7.974h7.773v33.72Zm-17.667-14.172,17.667,13.073,17.668-13.073v-32.392h-6.6l-11.069,8.191-11.069-8.191h-6.6Zm17.884,12.373v-11.465l3.727-2.823v11.53Zm.884-11.026v9.273l1.96-1.449v-9.308Zm-1.317,11.026-3.727-2.758v-11.53l3.727,2.823Zm-2.843-3.2,1.959,1.449v-9.273l-1.959-1.485Zm7.437.124v-11.537l1.362-1.033,2.364,1.749v8.064Zm.883-11.1v9.346l1.96-1.45v-7.174l-1.473-1.09Zm-9.637,11.1-3.727-2.757v-8.064l2.364-1.749,1.363,1.033Zm-2.843-3.2,1.959,1.45v-9.346l-.486-.368-1.474,1.09Zm15.757.124v-7.421l5.017,3.711Zm.883-5.67v3.918l2.647-1.958Zm-17.958,5.67-5.016-3.71,5.016-3.711Zm-3.531-3.71,2.647,1.958v-3.918Zm25.987-.27-7.94-5.875,2.521-2.771,8.552,6.328Zm-6.629-6,6.629,4.9,1.647-1.219-6.951-5.143Zm-21.208,6-3.134-2.318,8.552-6.328,2.521,2.771Zm-1.648-2.318,1.648,1.219,6.628-4.9-1.324-1.458Zm15.566.428-4.877-3.387,4.877-1.974,4.878,1.974Zm-3.032-3.18,3.032,2.105,3.032-2.105-3.032-1.228Zm-14.2,2.347v-4.636l8.227-6.088v4.636Zm.883-4.191v2.439l6.461-4.781v-2.439Zm33.584,4.191-8.229-6.088v-4.636l8.229,6.088Zm-7.345-6.533,6.46,4.781v-2.439l-6.46-4.781Zm-4.725,3.628-4.948-2v-2.161l4.515-3.546-.879-8.375h.491l1.678-.434h-2.649l.829,7.911-4.2,2.49-4.2-2.49.691-6.594h-.437l-.785,7.491,4.515,3.546v2.161l-4.948,2-3.409-3.779,0-6.074-3.454-4.432v-2.863l-.434-.11v1.1l-4.774,3.533v-4.636l4.774-3.533v3.39h.434v-3.711l3.513-2.6h3.863l4.649,3.44,4.651-3.44h3.862l3.512,2.6v3.711h.434v-3.389l4.776,3.533v4.635l-4.776-3.533v-1.111l-.434.112v2.87l-3.453,4.432,0,6.073Zm-4.064-2.6,3.823,1.546,2.767-3.067,0-6.038,3.08-3.953a1.765,1.765,0,0,0,.373-1.086v-1.732l-6.316,1.629.737,7.021a1.75,1.75,0,0,1-.659,1.557l-3.8,2.986Zm-8.791-1.521,2.768,3.067,3.823-1.546v-1.137l-3.8-2.986a1.749,1.749,0,0,1-.66-1.557l.738-7.037-6.319-1.608v1.727a1.771,1.771,0,0,0,.373,1.086l3.08,3.953Zm4.426-4.959,3.264,1.934,3.265-1.934-.771-7.348a.883.883,0,0,1,.879-.976h7.769v-2.375a1.767,1.767,0,0,0-.715-1.42l-1.736-1.284a1.766,1.766,0,0,0-1.051-.347h-2.114a1.765,1.765,0,0,0-1.051.347l-4.474,3.309-4.942-3.656h-2.7a1.767,1.767,0,0,0-1.05.347l-1.736,1.284a1.767,1.767,0,0,0-.717,1.42v2.375h7.771a.883.883,0,0,1,.878.976l-.082.772-.048.453Zm16.606-7.523,3.008,2.226v-2.438l-3.008-2.226Zm-29.691-.212v2.438l3.007-2.226v-2.438Zm10.377.295,2.532.645.068-.645Zm-11.261,14.247v-4.636l6.6-4.887,1.622,2.076v1.359Zm.883-4.191v2.438l6.461-4.781v-.609l-.9-1.159Zm33.584,4.191-8.229-6.088v-1.359l1.623-2.076,6.605,4.887Zm-7.345-6.533,6.46,4.781v-2.439l-5.556-4.11-.9,1.159Zm7.345,1.358-6.338-4.69,1.562-2v-1.48l4.776,3.533Zm-5.084-4.86,4.2,3.107v-2.439l-3.008-2.226v.033Zm-29.383,4.86v-4.637l4.774-3.533v1.48l1.563,2Zm.883-4.192v2.439l4.2-3.107-1.193-1.557Zm33.584-6.16-8.58-6.347h-3.418l4.847-3.586,7.151,5.3Zm-9.318-7.23h1.031l7.4,5.478v-2.439l-6.267-4.643Zm-25.149,7.23v-4.636l7.15-5.3,4.847,3.586h-3.418Zm.883-4.191v2.439l7.4-5.478h1.031l-2.167-1.6Zm33.584-.987-6.784-5.028.762-.562h6.022Zm-4.868-4.707,3.983,2.953v-2.953Zm-29.6,4.707v-5.59h6.021l.761.562Zm.883-4.707v2.953l3.984-2.953Z" transform="translate(-4355.846 1149.566)"/></g></g><g transform="translate(-435.67 4.377)"><path class="b" d="M4441.945-1119.37h8.225v3.749h-13.119v-24.5h4.894Z" transform="translate(-4437.051 1141.304)"/><path class="b" d="M4480-1120.7H4465.9a5.3,5.3,0,0,0,1.388,3.783,4.463,4.463,0,0,0,3.193,1.215,4.636,4.636,0,0,0,2.829-.833,3.691,3.691,0,0,0,1.44-2.256h5.171a8.276,8.276,0,0,1-1.631,3.609,8.529,8.529,0,0,1-3.211,2.5,10.289,10.289,0,0,1-4.355.9,10.232,10.232,0,0,1-5-1.2,8.417,8.417,0,0,1-3.4-3.418,10.746,10.746,0,0,1-1.214-5.241,10.849,10.849,0,0,1,1.214-5.258,8.281,8.281,0,0,1,3.4-3.418,10.36,10.36,0,0,1,5-1.18,10.133,10.133,0,0,1,4.98,1.18,8.322,8.322,0,0,1,3.3,3.245,9.415,9.415,0,0,1,1.163,4.7A9.267,9.267,0,0,1,4480-1120.7Zm-5.987-5.727a4.7,4.7,0,0,0-3.279-1.215,4.806,4.806,0,0,0-3.332,1.215,4.97,4.97,0,0,0-1.493,3.575h9.336A4.314,4.314,0,0,0,4474.008-1126.423Z" transform="translate(-4447.089 1137.702)"/><path class="b" d="M4511.222-1130.31a8.641,8.641,0,0,1,3.522,3.418,10.393,10.393,0,0,1,1.284,5.258,10.3,10.3,0,0,1-1.284,5.241,8.787,8.787,0,0,1-3.522,3.418,10.532,10.532,0,0,1-5.05,1.2,10.534,10.534,0,0,1-5.05-1.2,8.777,8.777,0,0,1-3.522-3.418,10.291,10.291,0,0,1-1.284-5.241,10.388,10.388,0,0,1,1.284-5.258,8.631,8.631,0,0,1,3.522-3.418,10.667,10.667,0,0,1,5.05-1.18A10.665,10.665,0,0,1,4511.222-1130.31Zm-8.52,4.494a5.708,5.708,0,0,0-1.424,4.183,5.706,5.706,0,0,0,1.424,4.182,4.692,4.692,0,0,0,3.47,1.44,4.694,4.694,0,0,0,3.47-1.44,5.705,5.705,0,0,0,1.423-4.182,5.708,5.708,0,0,0-1.423-4.183,4.7,4.7,0,0,0-3.47-1.44A4.7,4.7,0,0,0,4502.7-1125.816Z" transform="translate(-4461.772 1137.702)"/><path class="b" d="M4549.831-1119.115a6.724,6.724,0,0,1-2.776,2.533,9.626,9.626,0,0,1-4.477.954,11.623,11.623,0,0,1-4.651-.885,7.86,7.86,0,0,1-3.279-2.551,7.362,7.362,0,0,1-1.406-3.886h5.206a3.975,3.975,0,0,0,1.2,2.481,3.756,3.756,0,0,0,2.725.989,3.173,3.173,0,0,0,2.342-.815,2.842,2.842,0,0,0,.816-2.1,2.756,2.756,0,0,0-.659-1.891,4.818,4.818,0,0,0-1.667-1.2q-1.008-.451-2.776-1.042a27.365,27.365,0,0,1-3.748-1.51,6.917,6.917,0,0,1-2.481-2.169,6.21,6.21,0,0,1-1.025-3.714,6.039,6.039,0,0,1,2.273-4.98,9.341,9.341,0,0,1,6.021-1.823,9.544,9.544,0,0,1,6.2,1.874,7.069,7.069,0,0,1,2.619,5h-5.275a3.667,3.667,0,0,0-1.11-2.169,3.45,3.45,0,0,0-2.464-.85,3.25,3.25,0,0,0-2.186.711,2.566,2.566,0,0,0-.833,2.065,2.566,2.566,0,0,0,.642,1.788,4.9,4.9,0,0,0,1.631,1.163,26.683,26.683,0,0,0,2.691,1.007,35.665,35.665,0,0,1,3.833,1.561,6.762,6.762,0,0,1,2.517,2.186,6.425,6.425,0,0,1,1.04,3.818A6.641,6.641,0,0,1,4549.831-1119.115Z" transform="translate(-4477.147 1141.553)"/><path class="b" d="M4578.375-1130.476a6.38,6.38,0,0,1,2.464,2.689v-3.435h4.859v28.389h-4.859v-12.876a7.18,7.18,0,0,1-2.516,2.9,6.765,6.765,0,0,1-3.765,1.024,8.5,8.5,0,0,1-4.478-1.215,8.656,8.656,0,0,1-3.192-3.436,10.7,10.7,0,0,1-1.18-5.1,10.886,10.886,0,0,1,1.18-5.154,8.878,8.878,0,0,1,3.192-3.488,8.322,8.322,0,0,1,4.478-1.25A7.307,7.307,0,0,1,4578.375-1130.476Zm-6.264,4.789a5.69,5.69,0,0,0-1.44,4.148,5.443,5.443,0,0,0,1.44,4.077,4.982,4.982,0,0,0,3.626,1.406,5.215,5.215,0,0,0,2.534-.642,4.689,4.689,0,0,0,1.874-1.891,6.13,6.13,0,0,0,.694-3.019,6.13,6.13,0,0,0-.694-3.02,4.725,4.725,0,0,0-1.857-1.891,5.2,5.2,0,0,0-2.551-.642A4.86,4.86,0,0,0,4572.111-1125.687Z" transform="translate(-4490.721 1137.678)"/><path class="b" d="M4622.548-1131.073v19.227h-4.893v-3.888a6.129,6.129,0,0,1-2.516,3.037,7.478,7.478,0,0,1-4.043,1.093,6.806,6.806,0,0,1-5.31-2.186,8.78,8.78,0,0,1-1.979-6.108v-11.175h4.859v10.619a5.018,5.018,0,0,0,1.179,3.558,4.151,4.151,0,0,0,3.193,1.267,4.359,4.359,0,0,0,3.366-1.353,5.526,5.526,0,0,0,1.25-3.887v-10.2Z" transform="translate(-4506.613 1137.529)"/><path class="b" d="M4652.535-1130.344a6.237,6.237,0,0,1,2.464,3.088v-3.991h4.859v19.227H4655v-4.026a6.327,6.327,0,0,1-2.464,3.107,7.308,7.308,0,0,1-4.165,1.162,8.255,8.255,0,0,1-4.373-1.179,7.971,7.971,0,0,1-3.036-3.419,11.848,11.848,0,0,1-1.094-5.258,11.848,11.848,0,0,1,1.094-5.258,7.972,7.972,0,0,1,3.036-3.418,8.259,8.259,0,0,1,4.373-1.18A7.389,7.389,0,0,1,4652.535-1130.344Zm-6.316,4.616a5.774,5.774,0,0,0-1.389,4.1,5.71,5.71,0,0,0,1.389,4.078,4.812,4.812,0,0,0,3.679,1.475,4.845,4.845,0,0,0,3.661-1.51,5.612,5.612,0,0,0,1.44-4.043,5.662,5.662,0,0,0-1.44-4.078,4.843,4.843,0,0,0-3.661-1.51A4.785,4.785,0,0,0,4646.219-1125.729Z" transform="translate(-4521.656 1137.702)"/><path class="b" d="M4690.963-1134.791a6.472,6.472,0,0,1,2.481,3.089v-10.447h4.859v25.683h-4.859v-4.026a6.566,6.566,0,0,1-2.481,3.107,7.225,7.225,0,0,1-4.147,1.162,8.254,8.254,0,0,1-4.373-1.18,7.964,7.964,0,0,1-3.037-3.418,11.863,11.863,0,0,1-1.093-5.258,11.862,11.862,0,0,1,1.093-5.259,7.969,7.969,0,0,1,3.037-3.418,8.26,8.26,0,0,1,4.373-1.18A7.308,7.308,0,0,1,4690.963-1134.791Zm-6.3,4.616a5.777,5.777,0,0,0-1.388,4.1,5.712,5.712,0,0,0,1.388,4.078,4.813,4.813,0,0,0,3.679,1.475,4.846,4.846,0,0,0,3.662-1.51,5.617,5.617,0,0,0,1.44-4.043,5.666,5.666,0,0,0-1.44-4.078,4.843,4.843,0,0,0-3.662-1.51A4.788,4.788,0,0,0,4684.664-1130.176Z" transform="translate(-4537.693 1142.149)"/><path class="a" d="M4721.617-1104.288h0a2.551,2.551,0,0,1-2.551,2.551h-.173a2.551,2.551,0,0,1-2.551-2.551h0a2.551,2.551,0,0,1,2.551-2.551h.173A2.551,2.551,0,0,1,4721.617-1104.288Z" transform="translate(-4553.557 1127.419)"/></g><g transform="translate(-271.817 3.366)"><rect class="a" width="41" height="15" rx="1" transform="translate(-0.182 -0.365)"/><text class="c" transform="translate(8.318 10.135)"><tspan x="0" y="0">BETA</tspan></text></g></g></svg>