<svg xmlns="http://www.w3.org/2000/svg" xmlns:xlink="http://www.w3.org/1999/xlink" width="203" height="203" viewBox="0 0 203 203">
  <defs>
    <radialGradient id="radial-gradient" cx="0.53" cy="0.5" r="0.902" gradientUnits="objectBoundingBox">
      <stop offset="0" stop-color="#fff"/>
      <stop offset="1" stop-color="#f5f5f5"/>
    </radialGradient>
  </defs>
  <g id="privacy" transform="translate(-1426.711 -7669)">
    <g id="Ellipse_196" data-name="Ellipse 196" transform="translate(1426.711 7669)" stroke="#ed4041" stroke-width="5" fill="url(#radial-gradient)">
      <circle cx="101.5" cy="101.5" r="101.5" stroke="none"/>
      <circle cx="101.5" cy="101.5" r="99" fill="none"/>
    </g>
    <g id="Privacy-2" data-name="Privacy" transform="translate(1382.031 7660.889)">
      <g id="Group_689" data-name="Group 689" transform="translate(125.87 72.252)">
        <path id="Path_10402" data-name="Path 10402" d="M130.518,73.882c5.49,0,10.98.06,16.468-.033,1.831-.031,2.789.165,2.747,2.432-.143,8-.106,15.995-.022,23.992a6.354,6.354,0,0,1-2.939,5.377c-8.228,6.309-24.577,6.26-32.726-.064a6.746,6.746,0,0,1-2.888-5.794c.086-7.639.15-15.283-.04-22.917-.068-2.685.942-3.111,3.288-3.041C119.774,73.991,125.147,73.883,130.518,73.882Zm-.053,24.972c2.072.335,3.063-.086,2.447-2.633-.58-2.4-1.291-4.865.9-7.257,1.216-1.33.677-3.473-.956-4.769a3.6,3.6,0,0,0-4.9-.024c-1.62,1.313-2.233,3.484-.98,4.748,2.341,2.359,1.586,4.779.889,7.138C127.04,98.821,128.23,99.172,130.465,98.854Z" transform="translate(-111.115 -49.654)" fill="#e6101e"/>
        <path id="Path_10403" data-name="Path 10403" d="M140.695,76.743c0,1.192-.051,2.388.013,3.577.1,1.869-.08,3.071-2.6,3.027-2.341-.042-3.2-.689-3.021-3,.161-2.015.152-4.051.13-6.077-.048-4.409-3.53-8.021-7.56-7.9a7.707,7.707,0,0,0-7.227,7.836c-.033,2.026.051,4.054.033,6.083a3.679,3.679,0,0,1-5.375,2.922c-.605-.357-.591-.938-.571-1.549.135-4.051.106-8.131,1.094-12.087,1.308-5.236,6.938-9.223,12.392-8.952,6.4.316,11.713,4.855,12.485,10.762.23,1.768.221,3.568.324,5.353Z" transform="translate(-108.306 -60.609)" fill="#e6101e"/>
      </g>
      <path id="Path_10404" data-name="Path 10404" d="M145.081,176.972a3.073,3.073,0,0,1-1.381-.338c-21.633-10.651-36.208-25.954-44.56-46.788a82.533,82.533,0,0,1-5.446-22.785,113.239,113.239,0,0,1-.36-11.646c0-1.419.009-2.84-.005-4.261-.022-2.3-.016-4.6-.011-6.909l.007-24.5a3.047,3.047,0,0,1,2.754-3.409l40.429-8.14,1.884-.368c1.677-.322,3.413-.655,5.121-1.1a5.424,5.424,0,0,1,1.383-.168,15.128,15.128,0,0,1,3.127.461l.991.21q9.736,1.945,19.468,3.914s22.759,4.568,25.987,5.223a3.05,3.05,0,0,1,2.474,3.012c0,4.188.027,8.376.053,12.564.059,9.76.117,19.853-.121,29.76a81.253,81.253,0,0,1-15.53,46.148,90.845,90.845,0,0,1-34.438,28.633A4.16,4.16,0,0,1,145.081,176.972Zm.207-124.612a6.244,6.244,0,0,0-1.236.121l-21.788,4.376q-10.94,2.2-21.889,4.371a2.91,2.91,0,0,0-2.54,3.2q.044,17.748.016,35.5c0,2.185.115,4.515.364,7.33A74.213,74.213,0,0,0,104.1,130.5c7.694,17.606,20.987,31.165,39.511,40.3a3.4,3.4,0,0,0,1.509.368h0a3.624,3.624,0,0,0,1.6-.4,81.7,81.7,0,0,0,11.968-7.01c22.187-15.916,33.533-37.666,33.721-64.646.026-3.583.018-7.165.011-10.748l-.007-9.126c0-5,0-9.994.022-14.991A2.744,2.744,0,0,0,190,61.266c-2.549-.474-5.09-.991-7.63-1.511l-10.232-2.072q-11.48-2.326-22.966-4.61c-.342-.068-.686-.157-1.028-.247A11.281,11.281,0,0,0,145.288,52.36Z" transform="translate(0)" fill="#1a1818"/>
    </g>
  </g>
</svg>
