<svg xmlns="http://www.w3.org/2000/svg" xmlns:xlink="http://www.w3.org/1999/xlink" width="203" height="203" viewBox="0 0 203 203">
  <defs>
    <radialGradient id="radial-gradient" cx="0.53" cy="0.5" r="0.902" gradientUnits="objectBoundingBox">
      <stop offset="0" stop-color="#fff"/>
      <stop offset="1" stop-color="#f5f5f5"/>
    </radialGradient>
  </defs>
  <g id="virtual_environment" data-name="virtual environment" transform="translate(-1426.711 -7023)">
    <g id="Ellipse_194" data-name="Ellipse 194" transform="translate(1426.711 7023)" stroke="#ed4041" stroke-width="5" fill="url(#radial-gradient)">
      <circle cx="101.5" cy="101.5" r="101.5" stroke="none"/>
      <circle cx="101.5" cy="101.5" r="99" fill="none"/>
    </g>
    <g id="virtual_environment-2" data-name="virtual environment" transform="translate(1431.142 7200.155)">
      <circle id="Ellipse_233" data-name="Ellipse 233" cx="3.319" cy="3.319" r="3.319" transform="translate(95.978 -101.015)" fill="#e6101e"/>
      <circle id="Ellipse_234" data-name="Ellipse 234" cx="3.319" cy="3.319" r="3.319" transform="translate(105.339 -101.007)" fill="#e6101e"/>
      <circle id="Ellipse_235" data-name="Ellipse 235" cx="3.319" cy="3.319" r="3.319" transform="translate(114.594 -101.015)" fill="#e6101e"/>
      <path id="Path_10409" data-name="Path 10409" d="M87.924-88.008c5.16,0,10.322.09,15.478-.042,2.255-.057,2.974.716,2.944,2.958q-.159,12.1,0,24.21c.03,2.241-.693,2.977-2.944,2.957q-15.875-.14-31.752,0c-2.109.017-2.721-.722-2.7-2.756.087-8.2.12-16.406-.014-24.607-.041-2.474,1.077-2.786,3.112-2.749C77.339-87.944,82.632-88.009,87.924-88.008ZM87.78-61.886c4.1,0,8.2-.052,12.293.024,1.663.031,2.37-.487,2.347-2.251q-.113-8.922,0-17.845c.023-1.856-.894-2.155-2.446-2.148-8.2.04-16.393.083-24.588-.024-2.239-.03-2.6.974-2.575,2.866.079,5.418.129,10.842-.02,16.258-.064,2.373.6,3.292,3.1,3.172C79.842-62.023,83.815-61.884,87.78-61.886Z" transform="translate(-3.286 -3.487)" fill="#e6101e"/>
      <path id="Path_10410" data-name="Path 10410" d="M95.78-106.019c-.089,2.9-.19,5.808-.258,8.712-.03,1.242,0,2.354-1.779,2.432-2.032.09-2-1.153-2-2.556.022-3.309.066-6.619-.015-9.926-.041-1.693.591-2.36,2.3-2.355q20.054.053,40.106,0c1.789-.005,2.22.829,2.211,2.44-.047,8.34-.066,16.679.011,25.017.017,1.9-.639,2.524-2.518,2.491-5.425-.092-10.853-.044-16.281-.024-1.424.005-2.649-.02-2.575-2.015.076-2.093,1.53-1.785,2.813-1.791,3.971-.02,7.943-.064,11.913.014,1.9.037,2.973-.4,2.913-2.614-.178-6.606-.221-13.216-.316-19.825-.648-.86-1.592-.787-2.508-.787H98.288C97.373-106.805,96.428-106.879,95.78-106.019Z" transform="translate(-5.438 -1.442)" fill="#090909"/>
      <g id="Group_695" data-name="Group 695" transform="translate(44.432 -124.985)">
        <path id="Path_10411" data-name="Path 10411" d="M148.945-47.58H49.768a4.268,4.268,0,0,1-4.263-4.263v-68.878a4.268,4.268,0,0,1,4.263-4.263h99.177a4.268,4.268,0,0,1,4.263,4.263v68.878A4.268,4.268,0,0,1,148.945-47.58ZM49.768-121.363a.642.642,0,0,0-.641.641v68.878a.642.642,0,0,0,.641.641h99.177a.642.642,0,0,0,.641-.641v-68.878a.642.642,0,0,0-.641-.641Z" transform="translate(-45.505 124.985)" fill="#1a1818"/>
      </g>
      <path id="Path_10412" data-name="Path 10412" d="M35.842-28.29H156.3a1.7,1.7,0,0,1,1.142,2.967l-2.214,2a1.7,1.7,0,0,1-1.142.44H37.3a1.7,1.7,0,0,1-1.376-.7l-1.461-2A1.7,1.7,0,0,1,35.842-28.29Z" transform="translate(0 -9.13)" fill="#1a1818"/>
    </g>
  </g>
</svg>
